<?xml version="1.0" standalone="no"?><!DOCTYPE svg PUBLIC "-//W3C//DTD SVG 1.1//EN" "http://www.w3.org/Graphics/SVG/1.1/DTD/svg11.dtd" ><svg xmlns="http://www.w3.org/2000/svg"><metadata></metadata><defs><font id="PingFang SC Bold; 10.11d9e1; 2015-05-20" horiz-adv-x="1000"><font-face font-family="PingFang SC Bold" font-weight="400" font-stretch="normal" units-per-em="1000" panose-1="2 11 6 0 0 0 0 0 0 0" ascent="1060" descent="-340" x-height="0" bbox="-15 -212 976 832" underline-thickness="84" underline-position="-100" unicode-range="U+0021-ff1a" /><missing-glyph horiz-adv-x="1000"  /><glyph glyph-name="" unicode="!" d="M104 714 l125 0 l-23 -512 l-79 0 l-23 512 ZM166 143 q33 0 53 -20 q21 -19 21 -51 q0 -31 -21 -52 q-23 -20 -53 -20 q-30 0 -51 21 q-22 21 -22 51 q0 32 22 51 q20 20 51 20 Z" /><glyph glyph-name="" unicode="&quot;" d="M368 728 q88 0 88 -117 q0 -143 -132 -214 l-33 54 q87 54 95 136 l-18 -1 q-31 0 -53 19 q-20 20 -20 51 q0 33 20 52 q20 20 53 20 ZM136 728 q88 0 88 -117 q0 -143 -131 -214 l-33 54 q86 53 95 136 l-19 -1 q-30 0 -52 19 q-21 21 -21 51 q0 33 21 52 q20 20 52 20 Z" /><glyph glyph-name="" unicode="&#39;" d="M136 728 q88 0 88 -117 q0 -143 -131 -214 l-33 54 q86 53 95 136 l-19 -1 q-30 0 -52 19 q-21 21 -21 51 q0 33 21 52 q20 20 52 20 Z" /><glyph glyph-name="" unicode="(" d="M288 827 q-63 -102 -96 -207 q-44 -126 -44 -260 q0 -132 44 -260 q33 -103 96 -207 l-89 0 q-70 99 -108 204 q-46 126 -46 262 q0 138 46 263 q37 107 108 205 l89 0 Z" /><glyph glyph-name="" unicode=")" d="M134 827 q69 -98 108 -205 q46 -129 46 -263 q0 -132 -46 -262 q-39 -105 -108 -204 l-89 0 q62 104 96 207 q44 132 44 260 q0 130 -44 260 q-34 105 -96 207 l89 0 Z" /><glyph glyph-name="" unicode="*" d="M211 714 l92 0 l-11 -184 l168 68 l29 -86 l-177 -48 l121 -137 l-71 -56 l-105 153 l-106 -153 l-71 56 l121 137 l-176 48 l29 86 l168 -68 l-11 184 Z" /><glyph glyph-name="" unicode="+" d="M259 511 l88 0 l0 -208 l208 0 l0 -88 l-208 0 l0 -209 l-88 0 l0 209 l-209 0 l0 88 l209 0 l0 208 Z" /><glyph glyph-name="" unicode="," d="M130 142 q88 0 88 -116 q0 -143 -131 -214 l-33 53 q86 53 95 137 q-12 -2 -19 -2 q-30 0 -52 20 q-21 21 -21 50 q0 34 21 53 q20 19 52 19 Z" /><glyph glyph-name="" unicode="-" d="M50 303 l505 0 l0 -88 l-505 0 l0 88 Z" /><glyph glyph-name="" unicode="." d="M136 143 q33 0 53 -20 q21 -19 21 -51 q0 -30 -22 -52 q-22 -20 -52 -20 q-31 0 -52 21 q-21 21 -21 51 q0 32 21 51 q20 20 52 20 Z" /><glyph glyph-name="" unicode="/" d="M379 820 l92 0 l-349 -920 l-93 0 l350 920 Z" /><glyph glyph-name="" unicode="0" d="M300 728 q126 0 195 -106 q63 -99 63 -265 q0 -166 -63 -265 q-70 -106 -195 -106 q-125 0 -195 106 q-63 99 -63 265 q0 168 63 265 q69 106 195 106 ZM300 636 q-88 0 -124 -97 q-26 -64 -26 -182 q0 -117 26 -182 q36 -97 124 -97 q88 0 124 97 q26 69 26 182 q0 115 -26 182 q-36 97 -124 97 Z" /><glyph glyph-name="" unicode="1" d="M375 714 l0 -714 l-109 0 l0 583 q-66 -62 -164 -90 l0 108 q48 12 102 42 q54 34 88 71 l83 0 Z" /><glyph glyph-name="" unicode="2" d="M311 728 q104 0 169 -59 q65 -60 65 -154 q0 -91 -70 -169 q-42 -43 -148 -115 q-115 -76 -138 -135 l357 0 l0 -96 l-492 0 q0 107 71 187 q37 44 161 130 q73 52 102 82 q49 55 49 117 q0 60 -33 90 q-33 30 -97 30 q-68 0 -102 -46 q-35 -44 -38 -131 l-109 0 q2 120 69 192 q68 77 184 77 Z" /><glyph glyph-name="" unicode="3" d="M307 728 q108 0 173 -52 q64 -53 64 -144 q0 -118 -118 -157 q62 -19 96 -59 q36 -40 36 -104 q0 -99 -68 -162 q-73 -64 -187 -64 q-109 0 -176 56 q-75 63 -84 183 l110 0 q3 -73 47 -111 q39 -36 102 -36 q68 0 111 40 q37 37 37 89 q0 63 -39 93 q-36 30 -107 30 l-52 0 l0 82 l51 0 q65 0 99 29 q34 29 34 83 q0 53 -31 82 q-32 29 -97 29 q-65 0 -101 -33 q-37 -34 -43 -99 l-107 0 q9 106 79 166 q65 59 171 59 Z" /><glyph glyph-name="" unicode="4" d="M372 714 l100 0 l0 -472 l108 0 l0 -87 l-108 0 l0 -155 l-104 0 l0 155 l-348 0 l0 103 l352 456 ZM365 576 l-256 -334 l259 0 l0 334 l-3 0 Z" /><glyph glyph-name="" unicode="5" d="M95 714 l430 0 l0 -96 l-342 0 l-21 -206 l3 0 q33 34 76 49 q38 16 88 16 q101 0 164 -66 q64 -67 64 -181 q0 -110 -82 -181 q-76 -63 -183 -63 q-95 0 -165 53 q-76 57 -84 157 l107 0 q6 -61 47 -91 q36 -27 96 -27 q65 0 111 41 q45 42 45 110 q0 75 -39 117 q-39 42 -110 42 q-49 0 -83 -17 q-38 -17 -59 -57 l-102 0 l39 400 Z" /><glyph glyph-name="" unicode="6" d="M310 728 q208 0 235 -194 l-106 0 q-22 104 -130 104 q-75 0 -118 -73 q-43 -68 -43 -173 q0 -7 1 -13 l4 0 q30 48 76 70 q41 22 99 22 q105 0 168 -66 q62 -68 62 -173 q0 -107 -71 -176 q-73 -70 -178 -70 q-131 0 -200 96 q-66 92 -66 255 q0 176 71 282 q72 109 196 109 ZM306 383 q-67 0 -106 -42 q-39 -42 -39 -112 q0 -70 40 -111 q39 -42 104 -42 q66 0 105 44 q41 46 41 112 q0 70 -39 109 q-39 42 -106 42 Z" /><glyph glyph-name="" unicode="7" d="M61 714 l479 0 l0 -88 l-253 -626 l-115 0 l258 615 l-369 0 l0 99 Z" /><glyph glyph-name="" unicode="8" d="M300 728 q114 0 181 -60 q60 -54 60 -134 q0 -55 -24 -93 q-27 -40 -81 -61 l0 -3 q52 -12 88 -60 q42 -51 42 -118 q0 -94 -69 -154 q-71 -59 -197 -59 q-127 0 -197 59 q-69 60 -69 154 q0 67 42 118 q36 48 88 60 l0 3 q-54 21 -81 61 q-24 38 -24 93 q0 80 60 134 q66 60 181 60 ZM300 641 q-67 0 -105 -35 q-34 -30 -34 -76 q0 -52 28 -81 q35 -36 111 -36 q75 0 111 36 q28 31 28 81 q0 45 -34 76 q-38 35 -105 35 ZM300 332 q-80 0 -118 -38 q-40 -36 -40 -95 q0 -56 41 -90 q41 -35 117 -35 q75 0 119 35 q39 35 39 90 q0 60 -39 94 q-42 39 -119 39 Z" /><glyph glyph-name="" unicode="9" d="M292 728 q131 0 199 -95 q67 -93 67 -256 q0 -173 -71 -282 q-74 -109 -196 -109 q-208 0 -235 194 l106 0 q21 -104 130 -104 q72 0 118 73 q43 71 43 173 l-1 13 l-4 0 q-29 -45 -76 -70 q-46 -22 -99 -22 q-106 0 -169 68 q-61 65 -61 171 q0 108 71 176 q71 70 178 70 ZM296 638 q-68 0 -106 -44 q-40 -43 -40 -112 q0 -69 40 -109 q38 -42 105 -42 q67 0 106 42 q39 42 39 112 q0 69 -40 111 q-40 42 -104 42 Z" /><glyph glyph-name="" unicode=":" d="M136 509 q33 0 53 -20 q21 -19 21 -51 q0 -30 -22 -52 q-22 -20 -52 -20 q-31 0 -52 21 q-21 21 -21 51 q0 32 21 51 q20 20 52 20 ZM136 143 q33 0 53 -20 q21 -19 21 -51 q0 -30 -22 -52 q-22 -20 -52 -20 q-31 0 -52 21 q-21 21 -21 51 q0 32 21 51 q20 20 52 20 Z" /><glyph glyph-name="" unicode=";" d="M136 509 q33 0 53 -20 q21 -19 21 -51 q0 -30 -22 -52 q-22 -20 -52 -20 q-31 0 -52 21 q-21 21 -21 51 q0 32 21 51 q20 20 52 20 ZM136 142 q88 0 88 -116 q0 -143 -132 -214 l-33 53 q87 54 95 137 q-10 -2 -18 -2 q-30 0 -52 20 q-21 21 -21 50 q0 34 20 53 q20 19 53 19 Z" /><glyph glyph-name="" unicode="=" d="M50 406 l505 0 l0 -88 l-505 0 l0 88 ZM50 199 l505 0 l0 -88 l-505 0 l0 88 Z" /><glyph glyph-name="" unicode="?" d="M287 728 q98 0 157 -53 q59 -53 59 -143 q0 -73 -37 -122 q-15 -18 -85 -78 q-28 -25 -41 -51 q-16 -29 -16 -67 l0 -17 l-107 0 l0 17 q0 57 19 95 q21 41 114 124 l17 19 q27 35 27 73 q0 51 -29 82 q-30 30 -84 30 q-68 0 -98 -42 q-27 -36 -27 -103 l-106 0 q0 109 64 172 q63 64 173 64 ZM270 143 q33 0 53 -20 q21 -19 21 -51 q0 -31 -21 -52 q-23 -20 -53 -20 q-31 0 -51 21 q-22 21 -22 51 q0 32 22 51 q19 20 51 20 Z" /><glyph glyph-name="" unicode="a" d="M275 714 l124 0 l275 -714 l-117 0 l-67 184 l-307 0 l-67 -184 l-116 0 l275 714 ZM216 274 l241 0 l-118 323 l-4 0 l-119 -323 Z" /><glyph glyph-name="" unicode="b" d="M70 714 l326 0 q105 0 164 -50 q57 -48 57 -130 q0 -60 -30 -102 q-31 -40 -83 -59 q71 -14 107 -57 q36 -43 36 -116 q0 -107 -74 -158 q-63 -42 -177 -42 l-326 0 l0 714 ZM179 624 l0 -213 l188 0 q74 0 108 26 q33 27 33 84 q0 54 -33 78 q-32 25 -106 25 l-190 0 ZM179 322 l0 -232 l202 0 q67 0 108 22 q49 29 49 90 q0 63 -38 92 q-37 28 -116 28 l-205 0 Z" /><glyph glyph-name="" unicode="c" d="M380 728 q126 0 206 -65 q78 -63 95 -172 l-106 0 q-18 73 -69 107 q-50 34 -128 34 q-116 0 -174 -79 q-55 -71 -55 -197 q0 -128 54 -199 q57 -75 177 -75 q79 0 130 39 q54 42 75 126 l106 0 q-24 -125 -112 -195 q-82 -66 -198 -66 q-175 0 -264 112 q-77 95 -77 258 q0 160 80 259 q89 113 260 113 Z" /><glyph glyph-name="" unicode="d" d="M70 714 l260 0 q172 0 262 -97 q84 -90 84 -260 q0 -167 -86 -261 q-90 -96 -262 -96 l-258 0 l0 714 ZM179 621 l0 -528 l129 0 q136 0 199 65 q62 65 62 199 q0 136 -61 200 q-63 64 -198 64 l-131 0 Z" /><glyph glyph-name="" unicode="e" d="M70 714 l513 0 l0 -93 l-404 0 l0 -208 l380 0 l0 -93 l-380 0 l0 -227 l421 0 l0 -93 l-530 0 l0 714 Z" /><glyph glyph-name="" unicode="f" d="M70 714 l485 0 l0 -93 l-376 0 l0 -208 l355 0 l0 -93 l-355 0 l0 -320 l-109 0 l0 714 Z" /><glyph glyph-name="" unicode="g" d="M379 728 q138 0 216 -62 q77 -60 96 -179 l-110 0 q-15 72 -66 108 q-50 37 -136 37 q-104 0 -165 -71 q-65 -74 -65 -207 q0 -130 59 -198 q63 -75 197 -75 q49 0 99 13 q42 11 80 35 l0 155 l-197 0 l0 93 l306 0 l0 -300 q-54 -43 -129 -67 q-78 -24 -171 -24 q-170 0 -265 108 q-88 100 -88 260 q0 161 88 264 q92 110 251 110 Z" /><glyph glyph-name="" unicode="h" d="M70 714 l109 0 l0 -301 l374 0 l0 301 l109 0 l0 -714 l-109 0 l0 320 l-374 0 l0 -320 l-109 0 l0 714 Z" /><glyph glyph-name="" unicode="i" d="M72 714 l108 0 l0 -714 l-108 0 l0 714 Z" /><glyph glyph-name="" unicode="j" d="M354 714 l109 0 l0 -484 q0 -119 -50 -180 q-58 -64 -180 -64 q-107 0 -161 59 q-57 60 -57 164 l0 24 l109 0 l0 -23 q0 -128 111 -128 q62 0 91 37 q28 37 28 115 l0 480 Z" /><glyph glyph-name="" unicode="k" d="M524 714 l138 0 l-316 -307 l362 -407 l-146 0 l-290 336 l-93 -89 l0 -247 l-109 0 l0 714 l109 0 l0 -345 l345 345 Z" /><glyph glyph-name="" unicode="l" d="M70 714 l108 0 l0 -621 l393 0 l0 -93 l-501 0 l0 714 Z" /><glyph glyph-name="" unicode="m" d="M70 714 l129 0 l249 -572 l3 0 l248 572 l129 0 l0 -714 l-109 0 l0 510 l-4 0 l-219 -510 l-94 0 l-219 510 l-4 0 l0 -510 l-109 0 l0 714 Z" /><glyph glyph-name="" unicode="n" d="M70 714 l110 0 l365 -531 l4 0 l0 531 l109 0 l0 -714 l-106 0 l-369 537 l-4 0 l0 -537 l-109 0 l0 714 Z" /><glyph glyph-name="" unicode="o" d="M386 728 q163 0 257 -106 q90 -100 90 -266 q0 -163 -90 -265 q-94 -105 -257 -105 q-163 0 -257 106 q-89 101 -89 264 q0 164 89 265 q92 107 257 107 ZM386 632 q-115 0 -177 -77 q-60 -73 -60 -199 q0 -124 60 -198 q64 -76 177 -76 q114 0 176 74 q61 73 61 200 q0 127 -61 202 q-61 74 -176 74 Z" /><glyph glyph-name="" unicode="p" d="M70 714 l296 0 q255 0 255 -217 q0 -219 -257 -219 l-185 0 l0 -278 l-109 0 l0 714 ZM179 621 l0 -250 l178 0 q81 0 118 30 q37 31 37 96 q0 67 -38 94 q-37 30 -117 30 l-178 0 Z" /><glyph glyph-name="" unicode="q" d="M386 728 q163 0 257 -106 q90 -100 90 -266 q0 -160 -87 -262 q56 -75 79 -109 l-70 -62 q-47 68 -79 111 q-79 -48 -190 -48 q-163 0 -257 106 q-89 101 -89 264 q0 164 89 265 q92 107 257 107 ZM386 632 q-115 0 -177 -77 q-60 -73 -60 -199 q0 -124 60 -198 q64 -76 177 -76 q75 0 128 32 q-51 64 -107 123 l63 62 q45 -47 108 -121 q45 69 45 178 q0 127 -61 202 q-61 74 -176 74 Z" /><glyph glyph-name="" unicode="r" d="M70 714 l316 0 q110 0 172 -49 q66 -54 66 -155 q0 -56 -30 -100 q-34 -48 -93 -63 l0 -2 q95 -21 107 -126 l12 -114 q6 -66 42 -105 l-118 0 q-25 32 -31 94 l-9 89 q-6 58 -38 86 q-32 26 -94 26 l-193 0 l0 -295 l-109 0 l0 714 ZM179 621 l0 -233 l193 0 q71 0 108 31 q35 30 35 87 q0 59 -34 87 q-35 28 -110 28 l-192 0 Z" /><glyph glyph-name="" unicode="s" d="M320 728 q126 0 195 -53 q75 -55 85 -172 l-108 0 q-15 71 -56 100 q-41 31 -122 31 q-70 0 -108 -21 q-46 -24 -46 -78 q0 -48 53 -76 q26 -15 124 -44 q148 -46 187 -70 q92 -56 92 -154 q0 -95 -75 -151 q-75 -54 -210 -54 q-129 0 -204 52 q-88 63 -97 198 l108 0 q12 -85 60 -121 q44 -33 133 -33 q79 0 129 28 q48 27 48 75 q0 59 -68 94 q-25 12 -142 48 q-134 43 -164 59 q-82 49 -82 143 q0 94 79 148 q75 51 189 51 Z" /><glyph glyph-name="" unicode="t" d="M15 714 l585 0 l0 -93 l-238 0 l0 -621 l-108 0 l0 621 l-239 0 l0 93 Z" /><glyph glyph-name="" unicode="u" d="M70 714 l109 0 l0 -444 q0 -97 44 -142 q45 -47 142 -47 q96 0 141 47 q44 47 44 142 l0 444 l109 0 l0 -442 q0 -139 -77 -213 q-78 -73 -217 -73 q-142 0 -217 72 q-78 75 -78 214 l0 442 Z" /><glyph glyph-name="" unicode="v" d="M5 714 l118 0 l203 -592 l3 0 l202 592 l118 0 l-256 -714 l-132 0 l-256 714 Z" /><glyph glyph-name="" unicode="w" d="M5 714 l123 0 l139 -556 l4 0 l146 556 l114 0 l146 -556 l4 0 l139 556 l123 0 l-206 -714 l-116 0 l-145 551 l-4 0 l-145 -551 l-117 0 l-205 714 Z" /><glyph glyph-name="" unicode="x" d="M22 714 l133 0 l174 -258 l174 258 l133 0 l-242 -345 l259 -369 l-133 0 l-191 283 l-191 -283 l-133 0 l257 369 l-240 345 Z" /><glyph glyph-name="" unicode="y" d="M5 714 l131 0 l206 -327 l206 327 l131 0 l-283 -429 l0 -285 l-108 0 l0 285 l-283 429 Z" /><glyph glyph-name="" unicode="z" d="M55 714 l531 0 l0 -87 l-419 -534 l443 0 l0 -93 l-585 0 l0 86 l420 535 l-390 0 l0 93 Z" /><glyph glyph-name="" unicode="a" d="M293 531 q114 0 168 -57 q47 -50 47 -144 l0 -330 l-98 0 l0 73 q-29 -38 -76 -63 q-51 -24 -119 -24 q-80 0 -127 41 q-48 42 -48 111 q0 98 77 145 q65 40 170 40 l116 1 l0 13 q0 108 -117 108 q-55 0 -84 -20 q-35 -23 -41 -68 l-105 0 q12 92 78 136 q56 38 159 38 ZM403 243 l-109 -1 q-145 0 -145 -101 q0 -31 23 -51 q23 -20 67 -20 q71 0 119 40 q45 41 45 106 l0 27 Z" /><glyph glyph-name="" unicode="b" d="M60 728 l106 0 l0 -288 q63 91 158 91 q111 0 175 -81 q59 -76 59 -189 q0 -119 -60 -194 q-66 -81 -179 -81 q-105 0 -160 76 l0 -62 l-99 0 l0 728 ZM300 445 q-61 0 -96 -47 q-41 -50 -41 -135 l0 -9 q0 -77 33 -127 q38 -55 107 -55 q77 0 115 56 q31 50 31 133 q0 86 -33 131 q-37 53 -116 53 Z" /><glyph glyph-name="" unicode="c" d="M290 531 q99 0 159 -45 q61 -49 76 -144 l-105 0 q-11 54 -43 77 q-32 25 -87 25 q-66 0 -103 -49 q-38 -47 -38 -136 q0 -88 37 -137 q35 -49 103 -49 q118 0 133 118 l105 0 q-18 -103 -79 -155 q-61 -50 -160 -50 q-118 0 -184 78 q-64 74 -64 194 q0 117 63 192 q68 81 187 81 Z" /><glyph glyph-name="" unicode="d" d="M432 728 l106 0 l0 -728 l-99 0 l0 62 q-55 -76 -160 -76 q-114 0 -179 81 q-60 75 -60 194 q0 115 59 189 q63 81 175 81 q95 0 158 -91 l0 288 ZM298 445 q-79 0 -116 -53 q-33 -45 -33 -131 q0 -86 31 -133 q36 -56 115 -56 q67 0 107 55 q33 50 33 127 l0 9 q0 83 -40 135 q-38 47 -97 47 Z" /><glyph glyph-name="" unicode="e" d="M279 531 q128 0 193 -86 q61 -79 62 -216 l-392 0 q6 -77 41 -116 q37 -40 99 -40 q55 0 90 26 q25 19 47 67 l106 0 q-19 -74 -71 -121 q-68 -59 -171 -59 q-115 0 -181 71 q-72 75 -72 202 q0 116 68 193 q66 79 181 79 ZM282 444 q-60 0 -95 -35 q-34 -36 -43 -100 l279 0 q-15 135 -141 135 Z" /><glyph glyph-name="" unicode="f" d="M372 714 l0 -90 l-93 0 q-26 0 -38 -13 q-12 -12 -12 -41 l0 -53 l136 0 l0 -87 l-136 0 l0 -430 l-105 0 l0 430 l-119 0 l0 87 l119 0 l0 56 q0 67 36 103 q35 38 104 38 l108 0 Z" /><glyph glyph-name="" unicode="g" d="M275 531 q102 0 158 -83 l0 69 l106 0 l0 -483 q0 -246 -241 -246 q-107 0 -165 41 q-56 41 -71 127 l106 0 q9 -46 38 -65 q30 -19 92 -19 q135 0 135 146 l0 80 q-57 -86 -158 -86 q-105 0 -170 71 q-65 69 -65 187 q0 117 65 188 q64 73 170 73 ZM291 445 q-69 0 -104 -47 q-38 -44 -38 -128 q0 -75 30 -119 q35 -52 112 -52 q67 0 106 45 q37 48 37 126 q0 80 -37 128 q-38 47 -106 47 Z" /><glyph glyph-name="" unicode="h" d="M60 728 l106 0 l0 -284 q29 46 72 67 q37 20 88 20 q93 0 141 -55 q45 -52 45 -155 l0 -321 l-106 0 l0 303 q0 67 -28 104 q-30 37 -91 37 q-54 0 -87 -43 q-34 -43 -34 -111 l0 -290 l-106 0 l0 728 Z" /><glyph glyph-name="" unicode="i" d="M135 724 q33 0 53 -20 q21 -19 21 -51 q0 -30 -22 -52 q-22 -20 -52 -20 q-30 0 -52 20 q-21 21 -21 52 q0 32 21 51 q20 20 52 20 ZM82 517 l106 0 l0 -517 l-106 0 l0 517 Z" /><glyph glyph-name="" unicode="j" d="M138 724 q33 0 53 -20 q21 -19 21 -51 q0 -31 -21 -52 q-23 -20 -53 -20 q-29 0 -51 20 q-22 21 -22 52 q0 32 22 51 q20 20 51 20 ZM85 517 l106 0 l0 -567 q0 -148 -157 -148 l-49 0 l0 87 l40 0 q60 0 60 65 l0 563 Z" /><glyph glyph-name="" unicode="k" d="M60 728 l106 0 l0 -424 l224 213 l137 0 l-229 -213 l249 -304 l-136 0 l-186 236 l-59 -55 l0 -181 l-106 0 l0 728 Z" /><glyph glyph-name="" unicode="l" d="M72 728 l106 0 l0 -728 l-106 0 l0 728 Z" /><glyph glyph-name="" unicode="m" d="M308 531 q115 0 163 -87 q35 48 74 68 q35 19 88 19 q80 0 132 -53 q52 -54 52 -139 l0 -339 l-106 0 l0 321 q0 64 -27 92 q-26 29 -88 29 q-44 0 -74 -33 q-30 -33 -30 -91 l0 -318 l-106 0 l0 320 q0 122 -106 122 q-52 0 -82 -39 q-32 -36 -32 -92 l0 -311 l-106 0 l0 517 l106 0 l0 -57 q62 71 142 71 Z" /><glyph glyph-name="" unicode="n" d="M322 531 q193 0 193 -212 l0 -319 l-106 0 l0 310 q0 132 -121 132 q-47 0 -79 -32 q-37 -37 -43 -99 l0 -311 l-106 0 l0 517 l106 0 l0 -64 q29 38 69 58 q37 20 87 20 Z" /><glyph glyph-name="" unicode="o" d="M298 531 q118 0 188 -78 q70 -78 70 -195 q0 -118 -69 -193 q-73 -79 -189 -79 q-116 0 -189 79 q-69 75 -69 193 q0 119 70 195 q71 78 188 78 ZM298 444 q-74 0 -114 -58 q-35 -48 -35 -128 q0 -79 35 -127 q41 -58 114 -58 q72 0 115 58 q36 51 36 127 q0 79 -36 128 q-42 58 -115 58 Z" /><glyph glyph-name="" unicode="p" d="M319 531 q113 0 179 -81 q60 -75 60 -194 q0 -113 -59 -189 q-63 -81 -175 -81 q-95 0 -158 90 l0 -274 l-106 0 l0 715 l99 0 l0 -62 q54 76 160 76 ZM303 445 q-70 0 -107 -55 q-33 -48 -33 -128 l0 -9 q0 -84 41 -134 q36 -47 96 -47 q78 0 115 51 q34 49 34 133 q0 83 -31 133 q-37 56 -115 56 Z" /><glyph glyph-name="" unicode="q" d="M279 531 q106 0 160 -76 l0 62 l99 0 l0 -715 l-106 0 l0 274 q-63 -90 -158 -90 q-112 0 -175 81 q-59 74 -59 189 q0 119 60 194 q65 81 179 81 ZM295 445 q-80 0 -115 -56 q-31 -47 -31 -133 q0 -86 34 -133 q36 -51 115 -51 q58 0 97 47 q40 52 40 134 l0 9 q0 80 -33 128 q-39 55 -107 55 Z" /><glyph glyph-name="" unicode="r" d="M300 531 q41 0 67 -13 l0 -106 q-36 11 -75 11 q-48 0 -86 -39 q-40 -41 -40 -110 l0 -274 l-106 0 l0 517 l106 0 l0 -78 q19 41 50 63 q35 29 84 29 Z" /><glyph glyph-name="" unicode="s" d="M253 531 q202 0 220 -163 l-103 0 q-12 42 -37 58 q-27 18 -82 18 q-50 0 -72 -14 q-28 -15 -28 -46 q0 -26 42 -46 q26 -11 104 -31 q87 -21 131 -49 q62 -39 62 -108 q0 -164 -230 -164 q-212 0 -230 181 l104 0 q9 -52 37 -74 q28 -20 86 -20 q124 0 124 70 q0 38 -46 59 q-24 12 -104 30 q-92 21 -128 45 q-60 38 -60 104 q0 71 58 110 q58 40 152 40 Z" /><glyph glyph-name="" unicode="t" d="M217 684 l0 -167 l118 0 l0 -88 l-118 0 l0 -300 q0 -20 9 -31 q10 -10 28 -10 l68 0 l0 -88 l-85 0 q-67 0 -97 35 q-29 32 -29 94 l0 300 l-96 0 l0 88 l96 0 l0 123 l106 44 Z" /><glyph glyph-name="" unicode="u" d="M60 517 l106 0 l0 -315 q0 -67 28 -96 q28 -31 89 -31 q40 0 77 34 q36 35 50 92 l0 316 l106 0 l0 -517 l-106 0 l0 70 q-66 -84 -163 -84 q-187 0 -187 209 l0 322 Z" /><glyph glyph-name="" unicode="v" d="M5 517 l115 0 l130 -385 l130 385 l115 0 l-192 -517 l-106 0 l-192 517 Z" /><glyph glyph-name="" unicode="w" d="M5 517 l117 0 l109 -391 l106 391 l98 0 l106 -391 l109 391 l117 0 l-175 -517 l-98 0 l-108 387 l-108 -387 l-98 0 l-175 517 Z" /><glyph glyph-name="" unicode="x" d="M28 517 l124 0 l114 -164 l113 164 l124 0 l-179 -242 l201 -275 l-124 0 l-135 197 l-136 -197 l-125 0 l202 275 l-179 242 Z" /><glyph glyph-name="" unicode="y" d="M5 517 l115 0 l142 -377 l136 377 l116 0 l-281 -715 l-113 0 l90 210 l-205 505 Z" /><glyph glyph-name="" unicode="z" d="M35 517 l426 0 l0 -69 l-297 -361 l313 0 l0 -87 l-452 0 l0 73 l293 357 l-283 0 l0 87 Z" /><glyph glyph-name="" unicode="&#xff1a;" d="M250 619 q33 0 53 -20 q21 -19 21 -51 q0 -31 -21 -52 q-23 -20 -53 -20 q-30 0 -51 21 q-22 21 -22 51 q0 32 22 51 q20 20 51 20 ZM250 253 q33 0 53 -20 q21 -19 21 -51 q0 -31 -21 -52 q-23 -20 -53 -20 q-30 0 -51 21 q-22 21 -22 51 q0 32 22 51 q20 20 51 20 Z" /><glyph glyph-name="" unicode="&#x4e2d;" d="M451 824 l98 0 l0 -173 l356 0 l0 -483 l-95 0 l0 57 l-261 0 l0 -335 l-98 0 l0 335 l-260 0 l0 -57 l-95 0 l0 483 l355 0 l0 173 ZM191 318 l260 0 l0 240 l-260 0 l0 -240 ZM549 318 l261 0 l0 240 l-261 0 l0 -240 Z" /><glyph glyph-name="" unicode="&#x4e60;" d="M662 276 q-211 -132 -523 -234 l-38 87 q317 98 538 233 l23 -86 ZM256 591 q123 -93 200 -179 l-65 -66 q-69 80 -202 181 l67 64 ZM538 -97 l-26 91 q112 -2 169 -2 q39 0 59 37 q19 39 24 185 q2 73 7 461 l-645 0 l0 91 l740 0 q-9 -494 -16 -616 q-6 -139 -37 -192 q-30 -51 -113 -51 l-162 -4 Z" /><glyph glyph-name="" unicode="&#x4e70;" d="M160 508 q110 -44 207 -109 l-49 -75 q-100 76 -203 117 l45 67 ZM250 644 q115 -43 212 -105 l-49 -75 q-101 72 -208 114 l45 66 ZM511 634 l93 0 l0 -212 q-3 -70 -17 -133 l361 0 l0 -92 l-392 0 l-19 -37 q207 -87 391 -196 l-65 -73 q-180 112 -374 200 l-6 -8 q-109 -118 -356 -183 l-54 84 q251 65 340 163 q20 25 35 50 l-379 0 l0 92 l419 0 q19 64 23 133 l0 212 ZM104 768 l773 0 l0 -59 q-23 -90 -57 -176 l-89 25 q27 51 49 122 l-676 0 l0 88 Z" /><glyph glyph-name="" unicode="&#x4ea4;" d="M55 709 l397 0 q-28 60 -55 100 l106 18 q29 -54 54 -118 l389 0 l0 -91 l-891 0 l0 91 ZM665 606 q165 -128 280 -258 l-70 -70 q-96 121 -275 265 l65 63 ZM745 378 q-70 -132 -167 -229 q155 -107 381 -163 l-59 -89 q-235 66 -396 187 q-166 -130 -399 -191 l-58 88 q225 55 380 167 q-103 95 -170 216 l82 47 q63 -116 162 -202 q95 89 156 208 l88 -39 ZM397 544 q-112 -148 -282 -260 l-62 80 q163 102 275 241 l69 -61 Z" /><glyph glyph-name="" unicode="&#x2f08;&#x4eba;" d="M545 818 q0 -115 -7 -224 q87 -398 430 -609 l-63 -83 q-288 192 -402 514 q-99 -312 -414 -516 l-58 85 q405 246 417 676 l1 157 l96 0 Z" /><glyph glyph-name="" unicode="&#x4ed8;" d="M345 787 q-32 -99 -85 -197 l0 -695 l-95 0 l0 548 q-48 -63 -105 -123 l-30 99 q154 177 226 410 l89 -42 ZM356 611 l366 0 l0 205 l95 0 l0 -205 l138 0 l0 -92 l-138 0 l0 -508 q0 -109 -105 -109 l-149 0 l-21 93 q71 -6 137 -6 q43 0 43 46 l0 484 l-366 0 l0 92 ZM459 425 q112 -132 171 -229 l-81 -56 q-63 107 -168 237 l78 48 Z" /><glyph glyph-name="" unicode="&#x4f4d;" d="M347 787 q-39 -117 -97 -218 l0 -674 l-94 0 l0 535 q-50 -62 -94 -107 l-31 101 q154 175 227 404 l89 -41 ZM328 667 l258 0 q-21 73 -46 134 l100 16 q23 -72 41 -150 l255 0 l0 -91 l-608 0 l0 91 ZM311 31 l340 0 q74 201 128 492 l91 -23 q-49 -260 -122 -469 l214 0 l0 -93 l-651 0 l0 93 ZM467 514 q54 -181 101 -435 l-88 -23 q-38 218 -101 430 l88 28 Z" /><glyph glyph-name="" unicode="&#x4f53;" d="M150 405 q-43 -57 -86 -106 l-28 95 q148 186 217 431 l85 -40 q-35 -118 -95 -232 l0 -657 l-93 0 l0 509 ZM313 659 l253 0 l0 162 l93 0 l0 -162 l265 0 l0 -91 l-197 0 q70 -237 236 -418 l-61 -77 q-174 219 -243 491 l0 -378 l143 0 l0 -91 l-143 0 l0 -198 l-93 0 l0 198 l-140 0 l0 91 l140 0 l0 382 q-75 -309 -252 -507 l-49 81 q161 169 233 426 l-185 0 l0 91 Z" /><glyph glyph-name="" unicode="&#x4f59;" d="M534 818 q192 -171 434 -268 l-50 -87 q-75 32 -148 73 l0 -71 l-214 0 l0 -107 l356 0 l0 -92 l-356 0 l0 -246 q0 -112 -114 -112 l-121 0 l-21 90 q63 -5 110 -5 q53 0 53 51 l0 222 l-373 0 l0 92 l373 0 l0 107 l-232 0 l0 72 q-68 -38 -153 -76 l-49 88 q262 108 437 269 l68 0 ZM735 556 q-133 79 -235 179 q-96 -96 -236 -179 l471 0 ZM357 179 q-85 -155 -218 -236 l-72 62 q137 78 207 208 l83 -34 ZM725 229 q144 -135 218 -229 l-80 -56 q-77 106 -211 239 l73 46 Z" /><glyph glyph-name="" unicode="&#x4f5c;" d="M494 594 q-68 -143 -155 -249 l-68 82 q125 146 212 401 l96 -21 q-18 -55 -44 -120 l412 0 l0 -93 l-321 0 l0 -143 l281 0 l0 -92 l-281 0 l0 -147 l283 0 l0 -91 l-283 0 l0 -226 l-96 0 l0 699 l-36 0 ZM153 429 q-39 -47 -91 -101 l-32 102 q154 169 228 395 l90 -42 q-39 -114 -99 -216 l0 -672 l-96 0 l0 534 Z" /><glyph glyph-name="" unicode="&#x4fdd;" d="M337 787 q-35 -110 -88 -208 l0 -684 l-96 0 l0 536 q-41 -54 -93 -109 l-31 101 q148 175 218 405 l90 -41 ZM379 779 l484 0 l0 -332 l-196 0 l0 -88 l280 0 l0 -92 l-195 0 q78 -137 214 -237 l-62 -83 q-139 130 -228 320 l-9 0 l0 -370 l-94 0 l0 370 l-9 0 q-94 -205 -234 -321 l-54 86 q128 89 212 235 l-185 0 l0 92 l270 0 l0 88 l-194 0 l0 332 ZM769 538 l0 150 l-296 0 l0 -150 l296 0 Z" /><glyph glyph-name="" unicode="&#x2f0a;&#x5165;" d="M445 581 q-66 121 -161 189 l79 50 q126 -88 223 -337 q142 -350 370 -497 l-59 -75 q-235 141 -394 541 l-7 19 q-102 -363 -405 -561 l-57 81 q312 205 411 590 Z" /><glyph glyph-name="" unicode="&#x5168;" d="M534 821 q188 -194 432 -305 l-47 -85 q-77 37 -140 77 l0 -90 l-231 0 l0 -150 l281 0 l0 -92 l-281 0 l0 -158 l372 0 l0 -93 l-839 0 l0 93 l371 0 l0 158 l-282 0 l0 92 l282 0 l0 150 l-231 0 l0 90 q-64 -39 -144 -79 l-46 83 q261 125 435 309 l68 0 ZM777 509 q-156 96 -277 226 q-112 -123 -277 -226 l554 0 Z" /><glyph glyph-name="" unicode="&#x5177;" d="M811 787 l0 -610 l136 0 l0 -89 l-249 0 q130 -48 238 -109 l-53 -82 q-144 90 -294 141 l33 50 l-265 0 l49 -43 q-113 -85 -283 -150 l-58 76 q144 53 246 117 l-258 0 l0 89 l136 0 l0 610 l622 0 ZM284 177 l432 0 l0 74 l-432 0 l0 -74 ZM284 327 l432 0 l0 74 l-432 0 l0 -74 ZM284 477 l432 0 l0 76 l-432 0 l0 -76 ZM284 627 l432 0 l0 71 l-432 0 l0 -71 Z" /><glyph glyph-name="" unicode="&#x518d;" d="M81 780 l839 0 l0 -89 l-373 0 l0 -84 l295 0 l0 -375 l107 0 l0 -90 l-107 0 l0 -125 q0 -117 -101 -117 l-95 0 l-24 92 l88 -4 q40 0 40 50 l0 104 l-500 0 l0 -245 l-92 0 l0 245 l-107 0 l0 90 l107 0 l0 375 l295 0 l0 84 l-372 0 l0 89 ZM250 232 l203 0 l0 105 l-203 0 l0 -105 ZM547 232 l203 0 l0 105 l-203 0 l0 -105 ZM250 420 l203 0 l0 101 l-203 0 l0 -101 ZM547 521 l0 -101 l203 0 l0 101 l-203 0 Z" /><glyph glyph-name="" unicode="&#x5199;" d="M354 483 q-8 -29 -32 -110 l533 0 q-6 -374 -49 -423 q-41 -46 -174 -47 l-85 0 l-26 89 q62 -3 115 -3 q71 0 95 26 q23 29 28 270 l-557 0 q65 212 97 381 l94 -9 q-9 -45 -18 -84 l397 0 l0 -90 l-418 0 ZM70 188 l602 0 l0 -91 l-602 0 l0 91 ZM909 784 l0 -229 l-94 0 l0 140 l-630 0 l0 -139 l-94 0 l0 228 l818 0 Z" /><glyph glyph-name="" unicode="&#x51b3;" d="M355 676 l193 0 l0 143 l93 0 l0 -143 l226 0 l0 -292 l83 0 l0 -90 l-281 0 q93 -198 296 -321 l-62 -72 q-204 140 -301 356 q-78 -246 -298 -363 l-59 78 q207 101 273 322 l-204 0 l0 90 l224 0 q10 73 10 136 l0 66 l-193 0 l0 90 ZM641 586 l0 -45 q0 -80 -11 -157 l145 0 l0 202 l-134 0 ZM127 792 q95 -131 147 -233 l-78 -55 q-50 100 -148 239 l79 49 ZM285 342 q-70 -229 -151 -418 l-90 39 q92 206 157 412 l84 -33 Z" /><glyph glyph-name="" unicode="&#x51b5;" d="M354 779 l515 0 l0 -428 l-131 0 l0 -323 q0 -25 27 -25 l64 0 q23 0 32 22 q14 24 18 144 l85 -26 q-12 -163 -39 -195 q-27 -30 -79 -30 l-109 0 q-89 0 -89 91 l0 342 l-78 0 q-22 -313 -274 -454 l-52 83 q214 109 235 371 l-125 0 l0 428 ZM777 439 l0 251 l-331 0 l0 -251 l331 0 ZM122 790 q106 -128 164 -224 l-75 -53 q-62 104 -166 229 l77 48 ZM292 343 q-71 -214 -169 -422 l-86 37 q101 208 172 418 l83 -33 Z" /><glyph glyph-name="" unicode="&#x51fa;" d="M758 480 l0 265 l96 0 l0 -357 l-305 0 l0 -345 l259 0 l0 265 l95 0 l0 -404 l-95 0 l0 48 l-616 0 l0 -48 l-95 0 l0 404 l95 0 l0 -265 l259 0 l0 345 l-305 0 l0 357 l96 0 l0 -265 l209 0 l0 341 l98 0 l0 -341 l209 0 Z" /><glyph glyph-name="" unicode="&#x5206;" d="M428 753 q-69 -126 -138 -204 q-69 -78 -198 -172 l-52 84 q96 54 178 148 q71 81 130 192 l80 -48 ZM185 340 l0 91 l621 0 q-4 -187 -20 -312 q-17 -118 -54 -164 q-36 -45 -118 -50 l-187 0 l-25 91 q87 -3 165 -3 q83 0 110 64 q25 64 34 283 l-247 0 q-36 -162 -97 -254 q-75 -107 -222 -190 l-59 76 q130 70 196 156 q59 84 88 212 l-185 0 ZM663 814 q82 -227 296 -355 l-64 -75 q-224 148 -314 384 l82 46 Z" /><glyph glyph-name="" unicode="&#x521d;" d="M559 660 l-141 0 l0 91 l509 0 q0 -508 -16 -636 q-18 -202 -164 -202 q-24 0 -117 5 l-23 87 q80 -5 124 -5 q76 0 88 158 q8 66 11 502 l-177 0 l0 -77 q-6 -472 -260 -687 l-73 64 q235 195 239 623 l0 77 ZM174 276 q-55 -56 -111 -107 l-28 96 q183 165 246 321 l-223 0 l0 86 l124 0 q-24 65 -54 126 l92 24 q37 -86 56 -150 l98 0 l0 -77 q-36 -105 -109 -208 l0 -2 l41 -29 q45 35 91 102 l57 -57 q-43 -58 -90 -92 q45 -39 71 -68 l-51 -80 q-63 82 -119 135 l0 -398 l-91 0 l0 378 Z" /><glyph glyph-name="" unicode="&#x522b;" d="M90 450 l0 336 l439 0 l0 -336 l-192 0 q-2 -41 -8 -102 l212 0 q0 -267 -15 -330 q-15 -108 -150 -108 l-70 4 l-22 84 q50 -5 77 -5 q65 0 77 66 q7 28 10 200 l-131 0 q-15 -82 -38 -138 q-56 -130 -184 -222 l-61 75 q113 78 159 187 q18 39 30 98 l-167 0 l0 89 l180 0 q6 48 9 102 l-155 0 ZM625 732 l93 0 l0 -617 l-93 0 l0 617 ZM678 -94 l-21 91 q69 -6 132 -6 q43 0 43 50 l0 776 l94 0 l0 -800 q0 -111 -104 -111 l-144 0 ZM438 536 l0 165 l-257 0 l0 -165 l257 0 Z" /><glyph glyph-name="" unicode="&#x524d;" d="M758 795 q-28 -50 -61 -92 l253 0 l0 -92 l-901 0 l0 92 l260 0 q-26 52 -59 99 l100 16 q30 -49 61 -115 l181 0 q40 55 74 124 l92 -32 ZM321 -97 l-25 93 l72 -3 q34 0 34 47 l0 67 l-196 0 l0 -212 l-93 0 l0 654 l381 0 l0 -530 q0 -116 -95 -116 l-78 0 ZM206 191 l196 0 l0 93 l-196 0 l0 -93 ZM206 368 l196 0 l0 93 l-196 0 l0 -93 ZM654 -94 l-20 91 q63 -6 122 -6 q36 0 36 41 l0 538 l95 0 l0 -562 q0 -102 -98 -102 l-135 0 ZM586 495 l92 0 l0 -427 l-92 0 l0 427 Z" /><glyph glyph-name="" unicode="&#x5269;" d="M180 528 l82 0 l0 -292 l-82 0 l0 38 q-52 -32 -101 -57 l-24 80 q57 20 125 52 l0 51 l-114 0 l0 76 l114 0 l0 52 ZM521 316 q0 -17 22 -17 l8 0 q13 0 20 6 q11 6 14 67 l65 -21 q-9 -93 -26 -107 q-17 -16 -58 -17 l-48 0 q-39 0 -57 20 q-20 20 -20 50 l0 231 l80 0 l0 -65 q55 16 95 41 l28 -76 q-54 -24 -123 -39 l0 -73 ZM602 745 q-82 -22 -203 -35 l0 -67 l214 0 l0 -82 l-214 0 l0 -324 q100 -66 217 -161 l-56 -84 q-97 100 -161 151 l0 -248 l-89 0 l0 256 q-91 -114 -211 -193 l-56 83 q172 98 267 232 l0 288 l-234 0 l0 82 l234 0 l0 59 q-90 -6 -193 -6 l-25 77 q274 0 467 47 l43 -75 ZM684 703 l85 0 l0 -609 l-85 0 l0 609 ZM738 -96 l-20 89 q42 -6 81 -6 q45 0 45 37 l0 786 l92 0 l0 -808 q0 -98 -105 -98 l-93 0 Z" /><glyph glyph-name="" unicode="&#x5316;" d="M423 786 q-51 -123 -132 -230 l0 -661 l-94 0 l0 550 q-55 -58 -132 -122 l-30 99 q203 174 299 406 l89 -42 ZM622 -87 q-120 0 -120 120 l0 280 q-63 -33 -111 -56 l-43 90 q92 41 154 77 l0 389 l95 0 l0 -330 q149 99 259 222 l66 -75 q-146 -150 -325 -262 l0 -322 q0 -42 48 -42 l148 0 q34 0 51 23 q16 24 19 160 l88 -29 q-10 -172 -38 -209 q-28 -36 -104 -36 l-187 0 Z" /><glyph glyph-name="" unicode="&#x533a;" d="M342 623 q139 -106 247 -201 q79 104 135 235 l86 -46 q-63 -145 -147 -255 q109 -99 199 -199 l-74 -74 q-85 101 -189 199 q-124 -133 -293 -206 l-55 86 q159 65 275 187 q-108 97 -253 207 l69 67 ZM107 782 l802 0 l0 -91 l-711 0 l0 -663 l742 0 l0 -91 l-833 0 l0 845 Z" /><glyph glyph-name="" unicode="&#x5355;" d="M158 668 l184 0 q-38 62 -86 118 l82 39 q46 -56 94 -134 l-45 -23 l188 0 q44 79 74 161 l91 -33 q-35 -75 -70 -128 l172 0 l0 -432 l-294 0 l0 -74 l400 0 l0 -91 l-400 0 l0 -178 l-96 0 l0 178 l-400 0 l0 91 l400 0 l0 74 l-294 0 l0 432 ZM748 320 l0 91 l-200 0 l0 -91 l200 0 ZM452 320 l0 91 l-200 0 l0 -91 l200 0 ZM252 493 l200 0 l0 89 l-200 0 l0 -89 ZM548 582 l0 -89 l200 0 l0 89 l-200 0 Z" /><glyph glyph-name="" unicode="&#x53d6;" d="M52 787 l486 0 l0 -55 l390 0 l0 -87 q-33 -273 -130 -463 q69 -117 172 -214 l-64 -73 q-92 95 -158 200 q-77 -117 -183 -202 l-65 74 q118 92 195 220 q-107 207 -127 454 l-32 0 l0 57 l-72 0 l0 -534 l88 23 l0 -95 q-30 -8 -88 -22 l0 -177 l-93 0 l0 157 q-154 -33 -305 -56 l-23 94 l78 10 l0 600 l-69 0 l0 89 ZM655 641 q18 -195 90 -357 q70 161 94 357 l-184 0 ZM213 112 q82 14 158 30 l0 118 l-158 0 l0 -148 ZM213 345 l158 0 l0 133 l-158 0 l0 -133 ZM213 564 l158 0 l0 134 l-158 0 l0 -134 Z" /><glyph glyph-name="" unicode="&#x53eb;" d="M802 816 l95 0 l0 -918 l-95 0 l0 255 q-154 -46 -313 -83 l-28 84 q38 14 38 43 l0 548 l98 0 l0 -554 q117 30 205 59 l0 566 ZM384 746 l0 -732 l-95 0 l0 45 l-123 0 l0 -66 l-94 0 l0 753 l312 0 ZM166 150 l123 0 l0 504 l-123 0 l0 -504 Z" /><glyph glyph-name="" unicode="&#x53ef;" d="M52 765 l898 0 l0 -92 l-126 0 l0 -661 q0 -108 -103 -108 l-168 0 l-22 92 q92 -5 157 -5 q41 0 41 45 l0 637 l-677 0 l0 92 ZM568 543 l0 -385 l-315 0 l0 -82 l-91 0 l0 467 l406 0 ZM253 244 l225 0 l0 214 l-225 0 l0 -214 Z" /><glyph glyph-name="" unicode="&#x53f7;" d="M196 790 l608 0 l0 -288 l-608 0 l0 288 ZM708 587 l0 118 l-416 0 l0 -118 l416 0 ZM266 345 l-221 0 l0 91 l909 0 l0 -91 l-593 0 l-29 -96 l486 0 q-12 -254 -49 -300 q-38 -47 -146 -47 q-70 0 -132 8 l-32 86 q86 -8 143 -8 q76 0 94 30 q16 29 25 145 l-502 0 l47 182 Z" /><glyph glyph-name="" unicode="&#x5408;" d="M535 822 q190 -214 434 -336 l-51 -91 q-85 46 -155 96 l0 -71 l-526 0 l0 73 q-72 -52 -159 -100 l-50 92 q262 135 437 337 l70 0 ZM736 511 q-133 100 -236 225 q-101 -124 -238 -225 l474 0 ZM826 313 l0 -415 l-92 0 l0 54 l-468 0 l0 -54 l-92 0 l0 415 l652 0 ZM266 42 l468 0 l0 182 l-468 0 l0 -182 Z" /><glyph glyph-name="" unicode="&#x540d;" d="M367 -47 l0 -53 l-95 0 l0 343 q-82 -25 -179 -48 l-50 92 q253 49 418 125 q-63 51 -166 110 l82 51 q103 -63 166 -117 q135 82 202 191 l-346 0 q-103 -94 -257 -168 l-64 82 q253 108 343 262 l104 -12 q-23 -42 -46 -75 l375 0 l0 -84 q-98 -191 -351 -317 l383 0 l0 -435 l-96 0 l0 53 l-423 0 ZM790 45 l0 202 l-423 0 l0 -202 l423 0 Z" /><glyph glyph-name="" unicode="&#x544a;" d="M838 276 l0 -378 l-97 0 l0 48 l-476 0 l0 -48 l-97 0 l0 378 l670 0 ZM265 36 l476 0 l0 151 l-476 0 l0 -151 ZM241 596 q-47 -65 -116 -125 l-61 80 q132 110 179 266 l98 -12 q-20 -67 -44 -117 l163 0 l0 128 l96 0 l0 -128 l324 0 l0 -92 l-324 0 l0 -139 l399 0 l0 -92 l-910 0 l0 92 l415 0 l0 139 l-219 0 Z" /><glyph glyph-name="" unicode="&#x547c;" d="M940 629 q-33 -138 -87 -243 l-84 31 q46 90 83 235 l88 -23 ZM492 617 q41 -96 70 -212 l-83 -22 q-28 105 -71 207 l84 27 ZM494 -100 l-20 91 q50 -6 95 -6 q49 0 49 40 l0 232 l-241 0 l0 91 l241 0 l0 332 q-90 -9 -204 -16 l-28 82 q312 18 507 72 l45 -80 q-109 -27 -225 -45 l0 -345 l246 0 l0 -91 l-246 0 l0 -256 q0 -101 -110 -101 l-109 0 ZM163 54 l0 -79 l-91 0 l0 770 l274 0 l0 -746 l-91 0 l0 55 l-92 0 ZM255 142 l0 515 l-92 0 l0 -515 l92 0 Z" /><glyph glyph-name="" unicode="&#x55b5;" d="M912 486 l0 -587 l-91 0 l0 40 l-325 0 l0 -40 l-91 0 l0 587 l507 0 ZM496 26 l119 0 l0 147 l-119 0 l0 -147 ZM703 26 l118 0 l0 147 l-118 0 l0 -147 ZM496 258 l119 0 l0 141 l-119 0 l0 -141 ZM703 399 l0 -141 l118 0 l0 141 l-118 0 ZM492 818 l90 0 l0 -106 l152 0 l0 106 l89 0 l0 -106 l126 0 l0 -89 l-126 0 l0 -98 l-89 0 l0 98 l-152 0 l0 -99 l-90 0 l0 99 l-114 0 l0 89 l114 0 l0 106 ZM341 745 l0 -747 l-89 0 l0 54 l-89 0 l0 -78 l-91 0 l0 771 l269 0 ZM163 141 l89 0 l0 515 l-89 0 l0 -515 Z" /><glyph glyph-name="" unicode="&#x56de;" d="M300 547 l401 0 l0 -375 l-401 0 l0 375 ZM609 257 l0 205 l-217 0 l0 -205 l217 0 ZM911 765 l0 -849 l-95 0 l0 33 l-632 0 l0 -33 l-95 0 l0 849 l822 0 ZM184 35 l632 0 l0 644 l-632 0 l0 -644 Z" /><glyph glyph-name="" unicode="&#x5728;" d="M356 362 l219 0 l0 176 l97 0 l0 -176 l231 0 l0 -92 l-231 0 l0 -246 l275 0 l0 -93 l-628 0 l0 93 l256 0 l0 246 l-219 0 l0 92 ZM185 279 q-41 -41 -94 -86 l-60 78 q173 143 276 328 l-240 0 l0 93 l285 0 q27 59 50 137 l98 -11 q-21 -70 -43 -126 l490 0 l0 -93 l-532 0 q-59 -118 -136 -214 l0 -491 l-94 0 l0 385 Z" /><glyph glyph-name="" unicode="&#x5730;" d="M931 662 q0 -331 -17 -405 q-15 -69 -131 -69 l-9 0 l-28 96 q42 -2 56 -2 q26 0 32 33 q5 33 5 223 l-116 -33 l0 -393 l-90 0 l0 367 l-105 -30 l0 -395 q0 -50 48 -50 l245 0 q25 0 37 21 q13 20 19 135 l88 -28 q-12 -159 -41 -188 q-29 -29 -85 -29 l-292 0 q-111 0 -111 120 l0 388 l-62 -18 l0 93 l62 18 l0 202 l92 0 l0 -175 l105 31 l0 246 l90 0 l0 -219 l208 61 ZM375 122 q-153 -68 -315 -112 l-24 96 q55 10 124 29 l0 333 l-110 0 l0 93 l110 0 l0 255 l94 0 l0 -255 l104 0 l0 -93 l-104 0 l0 -302 q53 19 121 50 l0 -94 Z" /><glyph glyph-name="" unicode="&#x5740;" d="M652 819 l95 0 l0 -311 l180 0 l0 -92 l-180 0 l0 -392 l211 0 l0 -93 l-636 0 l0 93 l108 0 l0 583 l96 0 l0 -583 l126 0 l0 795 ZM375 106 q-150 -54 -321 -90 l-26 102 q59 8 127 23 l0 335 l-117 0 l0 93 l117 0 l0 247 l96 0 l0 -247 l115 0 l0 -93 l-115 0 l0 -310 q67 19 124 40 l0 -100 Z" /><glyph glyph-name="" unicode="&#x589e;" d="M46 561 l101 0 l0 254 l93 0 l0 -254 l93 0 l0 -90 l-93 0 l0 -303 q65 29 106 50 l0 -95 q-139 -69 -286 -112 l-24 94 q52 11 111 29 l0 337 l-101 0 l0 90 ZM547 821 q21 -59 38 -123 l126 0 q22 56 35 128 l94 -13 q-13 -60 -36 -115 l124 0 l0 -355 l-561 0 l0 355 l129 0 q-25 68 -44 107 l95 16 ZM846 420 l0 200 l-164 0 l0 -200 l164 0 ZM608 420 l0 200 l-159 0 l0 -200 l159 0 ZM536 589 q22 -52 43 -128 l-60 -16 q-17 63 -42 125 l59 19 ZM816 578 q-17 -73 -47 -136 l-59 21 q26 56 43 131 l63 -16 ZM892 288 l0 -392 l-91 0 l0 36 l-304 0 l0 -36 l-91 0 l0 392 l486 0 ZM497 9 l304 0 l0 66 l-304 0 l0 -66 ZM497 147 l304 0 l0 65 l-304 0 l0 -65 Z" /><glyph glyph-name="" unicode="&#x2f24;&#x5927;" d="M58 565 l383 0 q10 85 11 167 l0 87 l96 0 l0 -65 q0 -99 -12 -189 l406 0 l0 -92 l-382 0 q105 -320 403 -496 l-59 -77 q-289 178 -403 495 q-99 -343 -404 -504 l-61 80 q309 150 389 502 l-367 0 l0 92 Z" /><glyph glyph-name="" unicode="&#x5929;" d="M76 474 l355 0 q17 99 23 207 l-352 0 l0 91 l796 0 l0 -91 l-348 0 q-7 -109 -23 -207 l400 0 l0 -91 l-355 0 q105 -269 388 -414 l-59 -77 q-292 159 -403 449 q-25 -87 -56 -141 q-100 -178 -341 -309 l-60 78 q220 114 312 269 q34 57 58 145 l-335 0 l0 91 Z" /><glyph glyph-name="" unicode="&#x59d3;" d="M254 818 q-6 -48 -25 -181 l151 0 l0 -53 q-9 -238 -81 -413 q63 -61 105 -111 l-63 -74 q-29 36 -85 94 q-59 -107 -149 -189 l-65 80 q90 76 146 178 q-86 81 -131 122 q36 130 62 275 l-72 0 l0 91 l87 0 q15 92 27 189 l93 -8 ZM229 237 q53 135 63 309 l-78 0 q-28 -155 -55 -247 q44 -37 70 -62 ZM515 539 q-24 -123 -75 -201 l-69 62 q73 112 77 341 l85 0 q-1 -45 -5 -111 l110 0 l0 186 l95 0 l0 -186 l194 0 l0 -91 l-194 0 l0 -218 l186 0 l0 -93 l-186 0 l0 -213 l226 0 l0 -92 l-550 0 l0 92 l229 0 l0 213 l-195 0 l0 93 l195 0 l0 218 l-123 0 Z" /><glyph glyph-name="" unicode="&#x5b57;" d="M930 723 l0 -234 l-96 0 l0 144 l-668 0 l0 -144 l-96 0 l0 234 l382 0 q-25 56 -44 89 l109 18 q24 -55 41 -107 l372 0 ZM227 544 l544 0 l0 -88 q-100 -70 -211 -131 l0 -49 l386 0 l0 -92 l-386 0 l0 -188 q0 -95 -99 -95 l-123 0 l-23 86 q70 -2 114 -2 q36 0 36 44 l0 155 l-410 0 l0 92 l410 0 l0 88 q98 52 165 92 l-403 0 l0 88 Z" /><glyph glyph-name="" unicode="&#x5b58;" d="M78 729 l264 0 q16 45 31 97 l96 -11 q-10 -36 -26 -86 l499 0 l0 -93 l-536 0 q-57 -130 -136 -235 l0 -505 l-93 0 l0 394 q-36 -39 -81 -79 l-59 76 q172 153 266 349 l-225 0 l0 93 ZM337 259 l282 0 l0 81 q80 45 153 105 l-359 0 l0 87 l478 0 l0 -87 q-83 -78 -178 -143 l0 -43 l242 0 l0 -92 l-242 0 l0 -163 q0 -104 -102 -104 l-124 0 l-25 90 q51 -3 111 -3 q46 0 46 47 l0 133 l-282 0 l0 92 Z" /><glyph glyph-name="" unicode="&#x5b66;" d="M933 624 l0 -242 l-95 0 l0 151 l-677 0 l0 -151 l-94 0 l0 242 l180 0 q-48 81 -99 144 l86 42 q53 -72 100 -154 l-64 -32 l375 0 q60 91 106 201 l98 -36 q-51 -100 -100 -165 l184 0 ZM230 470 l541 0 l0 -84 q-93 -60 -211 -118 l0 -35 l373 0 l0 -90 l-373 0 l0 -153 q0 -89 -95 -89 l-127 0 l-23 86 q72 -2 118 -2 q32 0 32 38 l0 120 l-395 0 l0 90 l395 0 l0 76 q105 45 169 77 l-404 0 l0 84 ZM473 830 q52 -77 95 -162 l-85 -43 q-44 90 -96 163 l86 42 Z" /><glyph glyph-name="" unicode="&#x5b9a;" d="M204 531 l594 0 l0 -90 l-246 0 l0 -150 l288 0 l0 -90 l-288 0 l0 -184 q98 -14 251 -16 q63 0 154 7 l-18 -94 l-94 0 q-316 0 -451 57 q-96 45 -156 132 q-57 -120 -141 -204 l-62 76 q142 148 190 394 l92 -16 q-18 -86 -44 -163 q71 -118 176 -151 l9 -2 l0 404 l-254 0 l0 90 ZM919 726 l0 -227 l-93 0 l0 139 l-652 0 l0 -144 l-93 0 l0 232 l376 0 q-19 42 -46 87 l102 16 q24 -53 41 -103 l365 0 Z" /><glyph glyph-name="" unicode="&#x5bc6;" d="M924 744 l0 -216 l-93 0 l0 131 l-662 0 l0 -131 l-93 0 l0 216 l374 0 q-17 40 -31 66 l101 16 q8 -20 29 -82 l375 0 ZM456 205 l94 0 l0 -184 l222 0 l0 163 l94 0 l0 -288 l-94 0 l0 37 l-529 0 l0 -36 l-94 0 l0 274 l94 0 l0 -150 l213 0 l0 184 ZM468 648 q60 -60 95 -111 l-69 -48 q-34 52 -95 116 l69 43 ZM769 577 q-131 -156 -323 -260 l177 0 q29 0 43 14 q18 15 24 96 l89 -29 q-12 -118 -46 -143 q-31 -23 -92 -23 l-227 0 q-56 0 -82 30 q-118 -50 -256 -88 l-38 80 q149 39 270 93 l0 194 l92 0 l0 -149 q182 99 300 238 l69 -53 ZM804 531 q102 -116 155 -201 l-76 -52 q-57 95 -148 204 l69 49 ZM294 563 q-46 -138 -132 -240 l-78 49 q89 95 127 209 l83 -18 Z" /><glyph glyph-name="" unicode="&#x5bf9;" d="M476 633 l280 0 l0 189 l96 0 l0 -189 l103 0 l0 -92 l-103 0 l0 -526 q0 -115 -119 -115 l-152 0 l-20 93 q72 -6 139 -6 q56 0 56 52 l0 502 l-280 0 l0 92 ZM130 562 q98 -108 164 -191 q47 122 55 264 l-266 0 l0 92 l351 0 l0 -70 q-3 -201 -79 -366 q55 -76 106 -154 l-70 -70 q-36 63 -84 133 q-79 -128 -214 -242 l-54 83 q133 101 211 238 q-80 107 -184 223 l64 60 ZM543 440 q96 -118 150 -214 l-75 -52 q-55 98 -147 213 l72 53 Z" /><glyph glyph-name="" unicode="&#x2f29;&#x5c0f;" d="M298 -92 l-23 99 q81 -7 131 -7 q60 0 60 62 l0 743 l99 0 l0 -768 q0 -129 -124 -129 l-143 0 ZM293 535 q-69 -293 -182 -450 l-83 73 q115 157 170 415 l95 -38 ZM800 598 q109 -267 167 -461 l-86 -60 q-62 206 -168 467 l87 54 Z" /><glyph glyph-name="" unicode="&#x2f2f;&#x5de5;" d="M456 668 l-340 0 l0 92 l777 0 l0 -92 l-341 0 l0 -637 l384 0 l0 -93 l-873 0 l0 93 l393 0 l0 637 Z" /><glyph glyph-name="" unicode="&#x5e02;" d="M54 713 l396 0 q-25 60 -49 100 l102 16 q24 -56 44 -116 l399 0 l0 -91 l-398 0 l0 -109 l325 0 l0 -371 q0 -97 -100 -97 l-101 0 l-24 90 l95 -5 q36 0 36 34 l0 258 l-231 0 l0 -524 l-96 0 l0 524 l-219 0 l0 -384 l-93 0 l0 475 l312 0 l0 109 l-398 0 l0 91 Z" /><glyph glyph-name="" unicode="&#x5e08;" d="M391 787 l567 0 l0 -92 l-237 0 l0 -101 l206 0 l0 -497 q0 -92 -86 -92 l-69 0 l-24 91 l62 -5 q26 0 26 26 l0 388 l-115 0 l0 -606 l-92 0 l0 606 l-115 0 l0 -505 l-91 0 l0 594 l206 0 l0 101 l-238 0 l0 92 ZM76 684 l92 0 l0 -532 l-92 0 l0 532 ZM252 817 l92 0 l0 -481 q-5 -302 -201 -440 l-72 62 q178 119 181 378 l0 481 Z" /><glyph glyph-name="" unicode="&#x5e10;" d="M278 73 l0 -178 l-82 0 l0 689 l-55 0 l0 -526 l-83 0 l0 609 l138 0 l0 147 l82 0 l0 -147 l140 0 l0 -493 q0 -101 -88 -101 l-52 0 ZM278 584 l0 -440 l28 -1 q29 0 29 49 l0 392 l-57 0 ZM596 340 l0 -324 q62 24 133 65 l15 -85 q-97 -59 -228 -97 l-39 84 q28 12 28 38 l0 319 l-61 0 l0 91 l61 0 l0 388 l91 0 l0 -388 l342 0 l0 -91 l-179 0 q76 -233 209 -356 l-65 -73 q-149 146 -227 429 l-80 0 ZM929 735 q-109 -176 -255 -256 l-50 70 q137 82 235 244 l70 -58 Z" /><glyph glyph-name="" unicode="&#x5e74;" d="M258 624 q-62 -104 -157 -176 l-64 80 q150 113 201 301 l98 -18 q-17 -57 -32 -95 l608 0 l0 -92 l-307 0 l0 -138 l272 0 l0 -89 l-272 0 l0 -194 l338 0 l0 -93 l-338 0 l0 -216 l-95 0 l0 216 l-454 0 l0 93 l157 0 l0 283 l297 0 l0 138 l-252 0 ZM309 203 l201 0 l0 194 l-201 0 l0 -194 Z" /><glyph glyph-name="" unicode="&#x5e94;" d="M220 28 l413 0 q87 208 154 513 l94 -25 q-61 -279 -146 -488 l197 0 l0 -92 l-712 0 l0 92 ZM344 492 q58 -154 107 -365 l-90 -23 q-38 187 -99 362 l82 26 ZM536 565 q52 -168 92 -377 l-90 -22 q-31 183 -85 372 l83 27 ZM541 827 q27 -49 47 -97 l360 0 l0 -92 l-733 0 l0 -210 q-5 -334 -97 -532 l-80 71 q78 165 81 461 l0 302 l363 0 q-21 43 -47 79 l106 18 Z" /><glyph glyph-name="" unicode="&#x5f53;" d="M120 501 l332 0 l0 309 l100 0 l0 -309 l335 0 l0 -597 l-96 0 l0 35 l-675 0 l0 92 l675 0 l0 146 l-624 0 l0 91 l624 0 l0 140 l-671 0 l0 93 ZM889 726 q-44 -100 -120 -197 l-86 46 q73 93 119 192 l87 -41 ZM207 759 q82 -104 121 -175 l-81 -55 q-46 83 -121 180 l81 50 Z" /><glyph glyph-name="" unicode="&#x5f55;" d="M169 788 l591 0 l0 -323 l172 0 l0 -87 l-391 0 l0 -102 q33 -37 67 -66 q102 58 173 163 l73 -61 q-81 -100 -181 -155 q114 -84 263 -148 l-48 -84 q-214 101 -347 246 l0 -173 q0 -102 -88 -102 l-116 0 l-21 90 q65 -7 105 -7 q26 0 26 41 l0 146 q-149 -131 -354 -238 l-38 88 q228 104 392 249 l0 113 l-378 0 l0 87 l594 0 l0 77 l-460 0 l0 82 l460 0 l0 79 l-494 0 l0 85 ZM189 357 q89 -61 149 -122 l-62 -62 q-54 57 -150 123 l63 61 Z" /><glyph glyph-name="" unicode="&#x5f85;" d="M320 789 q-75 -166 -257 -300 l-28 92 q137 104 202 247 l83 -39 ZM354 558 q-34 -77 -87 -148 l0 -508 l-91 0 l0 404 q-52 -51 -105 -92 l-27 90 q155 128 229 292 l81 -38 ZM608 822 l95 0 l0 -101 l215 0 l0 -87 l-215 0 l0 -102 l256 0 l0 -90 l-600 0 l0 90 l249 0 l0 102 l-213 0 l0 87 l213 0 l0 101 ZM362 343 l379 0 l0 65 l96 0 l0 -65 l108 0 l0 -89 l-108 0 l0 -250 q0 -103 -108 -103 l-142 0 l-22 91 q69 -6 131 -6 q45 0 45 43 l0 225 l-379 0 l0 89 ZM483 228 q91 -86 135 -146 l-74 -51 q-49 68 -135 150 l74 47 Z" /><glyph glyph-name="" unicode="&#x6001;" d="M546 820 q-5 -47 -17 -97 l377 0 l0 -91 l-305 0 q72 -150 357 -237 l-50 -82 q-330 120 -403 319 l-4 0 q-32 -80 -86 -145 l-3 -3 q65 -47 138 -112 l-66 -66 q-61 64 -134 123 q-104 -73 -278 -119 l-37 88 q209 52 302 150 q36 39 59 84 l-311 0 l0 91 l346 0 q15 55 20 107 l95 -10 ZM225 217 q-36 -156 -99 -270 l-82 51 q61 110 88 240 l93 -21 ZM533 276 q51 -72 91 -164 l-87 -39 q-41 102 -87 176 l83 27 ZM834 254 q71 -112 123 -238 l-87 -39 q-54 134 -127 248 l91 29 ZM387 -82 q-109 0 -109 114 l0 209 l96 0 l0 -190 q0 -41 43 -41 l206 0 q26 0 38 18 q15 17 21 109 l90 -29 q-12 -138 -44 -164 q-29 -26 -87 -26 l-254 0 Z" /><glyph glyph-name="" unicode="&#x6027;" d="M140 619 q-3 -148 -32 -286 l-77 22 q31 130 35 269 l74 -5 ZM338 648 q27 -66 47 -136 q40 117 46 242 l87 -12 q-3 -59 -10 -105 l119 0 l0 179 l96 0 l0 -179 l210 0 l0 -92 l-210 0 l0 -221 l199 0 l0 -93 l-199 0 l0 -214 l236 0 l0 -92 l-610 0 l0 92 l278 0 l0 214 l-224 0 l0 93 l224 0 l0 221 l-137 0 q-27 -105 -76 -192 l-70 62 q12 24 21 45 l-43 -11 q-22 99 -53 177 l69 22 ZM171 817 l95 0 l0 -916 l-95 0 l0 916 Z" /><glyph glyph-name="" unicode="&#x603b;" d="M175 652 l163 0 q-50 80 -100 137 l81 40 q53 -64 105 -146 l-62 -31 l205 0 q60 90 100 180 l91 -33 q-48 -90 -89 -147 l156 0 l0 -348 l-650 0 l0 348 ZM730 394 l0 168 l-460 0 l0 -168 l460 0 ZM223 214 q-35 -157 -104 -274 l-81 52 q67 114 95 241 l90 -19 ZM534 279 q49 -73 88 -164 l-87 -39 q-39 100 -85 175 l84 28 ZM848 255 q65 -117 110 -244 l-87 -39 q-53 145 -114 254 l91 29 ZM387 -90 q-104 0 -104 111 l0 205 l97 0 l0 -185 q0 -41 36 -41 l212 0 q25 0 37 17 q14 19 19 114 l91 -29 q-12 -137 -43 -168 q-28 -24 -87 -24 l-258 0 Z" /><glyph glyph-name="" unicode="&#x60a8;" d="M503 258 l-21 88 q36 -6 67 -6 q26 0 26 38 l0 230 l94 0 l0 -252 q0 -98 -88 -98 l-78 0 ZM161 522 q-38 -40 -70 -69 l-60 72 q127 106 217 296 l92 -21 q-39 -83 -87 -158 l0 -381 l-92 0 l0 261 ZM563 801 l-32 -66 l392 0 l0 -58 q-20 -77 -49 -148 l-85 23 q23 42 40 97 l-350 0 q-55 -80 -122 -141 l-58 71 q102 89 174 243 l90 -21 ZM235 198 q-39 -150 -106 -258 l-80 51 q65 103 94 226 l92 -19 ZM392 -88 q-102 0 -102 109 l0 205 l96 0 l0 -185 q0 -39 35 -39 l206 0 q26 0 40 17 q17 18 21 109 l90 -29 q-12 -137 -44 -163 q-28 -24 -89 -24 l-253 0 ZM822 252 q98 -134 147 -230 l-79 -56 q-50 101 -145 238 l77 48 ZM523 486 q-52 -111 -131 -197 l-72 51 q75 78 127 182 l76 -36 ZM798 523 q69 -84 128 -195 l-81 -41 q-56 113 -126 202 l79 34 ZM524 248 q69 -80 108 -143 l-74 -52 q-40 70 -106 150 l72 45 Z" /><glyph glyph-name="" unicode="&#x60c5;" d="M513 180 l0 -53 l295 0 l0 53 l-295 0 ZM808 252 l0 57 l-295 0 l0 -57 l295 0 ZM513 55 l0 -156 l-90 0 l0 486 l476 0 l0 -384 q0 -98 -97 -98 l-74 0 l-23 83 l69 -4 q34 0 34 39 l0 34 l-295 0 ZM615 821 l94 0 l0 -60 l224 0 l0 -76 l-224 0 l0 -52 l190 0 l0 -74 l-190 0 l0 -50 l253 0 l0 -78 l-605 0 l0 30 l-48 -12 q-22 84 -56 164 l0 -712 l-92 0 l0 916 l92 0 l0 -188 l61 20 q32 -74 52 -140 l249 0 l0 50 l-193 0 l0 74 l193 0 l0 52 l-227 0 l0 76 l227 0 l0 60 ZM136 619 q-3 -145 -37 -283 l-71 19 q32 125 37 269 l71 -5 Z" /><glyph glyph-name="" unicode="&#x622a;" d="M134 251 q-13 -16 -43 -48 l-55 65 q85 79 148 219 l76 -17 q-12 -29 -27 -61 l115 0 q-11 30 -27 58 l91 14 q11 -28 25 -72 l148 0 l0 -76 l-159 0 l0 -54 l136 0 l0 -66 l-136 0 l0 -52 l136 0 l0 -66 l-136 0 l0 -55 l149 0 l0 -36 q59 46 108 119 q-22 59 -41 150 q-21 96 -30 229 l-559 0 l0 87 l244 0 l0 73 l-192 0 l0 84 l192 0 l0 72 l92 0 l0 -72 l173 0 l0 -84 l-173 0 l0 -73 l217 0 q-5 89 -5 230 l91 0 q0 -128 6 -230 l250 0 l0 -87 l-245 0 q7 -121 23 -203 l15 -67 q44 104 71 234 l81 -35 q-44 -196 -115 -324 l13 -30 q33 -70 52 -70 q18 2 36 142 l80 -43 q-36 -203 -102 -203 q-53 0 -114 91 q-7 10 -19 32 q-60 -76 -131 -118 l-39 57 l-336 0 l0 -44 l-84 0 l0 330 ZM218 40 l125 0 l0 55 l-125 0 l0 -55 ZM343 161 l0 52 l-125 0 l0 -52 l125 0 ZM343 279 l0 54 l-125 0 l0 -54 l125 0 ZM791 803 q69 -80 104 -138 l-70 -50 q-39 66 -103 145 l69 43 Z" /><glyph glyph-name="" unicode="&#x6240;" d="M446 215 l-261 0 q-18 -181 -87 -316 l-66 68 q73 149 76 349 l0 423 q187 24 284 81 l63 -72 q-108 -57 -263 -78 l0 -97 l254 0 l0 -358 ZM192 481 l0 -172 l-1 -7 l168 0 l0 179 l-167 0 ZM601 428 l0 -138 q-3 -265 -68 -395 l-86 43 q64 128 67 352 l0 463 q216 8 365 67 l48 -83 q-144 -53 -327 -62 l1 -156 l358 0 l0 -91 l-106 0 l0 -531 l-93 0 l0 531 l-159 0 Z" /><glyph glyph-name="" unicode="&#x2f3f;&#x624b;" d="M878 733 q-135 -36 -312 -54 l0 -145 l310 0 l0 -92 l-310 0 l0 -142 l385 0 l0 -91 l-385 0 l0 -205 q0 -99 -104 -99 l-155 0 l-22 92 q83 -5 144 -5 q42 0 42 35 l0 182 l-421 0 l0 91 l421 0 l0 142 l-338 0 l0 92 l338 0 l0 137 q-160 -11 -329 -11 l-30 86 q424 0 719 67 l47 -80 Z" /><glyph glyph-name="" unicode="&#x62a5;" d="M390 335 q-53 -26 -107 -49 l0 -286 q0 -100 -96 -100 l-94 0 l-22 91 q44 -6 82 -6 q37 0 37 38 l0 226 q-66 -24 -132 -45 l-24 94 q87 20 156 44 l0 211 l-137 0 l0 91 l137 0 l0 173 l93 0 l0 -173 l104 0 l0 -91 l-104 0 l0 -175 q58 26 107 51 l0 -94 ZM521 341 l0 -444 l-90 0 l0 888 l461 0 q0 -173 -19 -235 q-19 -57 -120 -57 l-75 0 l-26 82 l58 -1 q35 0 53 3 q16 5 25 20 q10 21 13 102 l-280 0 l0 -271 l378 0 l0 -82 q-24 -155 -96 -263 q70 -64 164 -114 l-64 -74 q-91 58 -154 119 q-68 -73 -166 -120 l-46 83 q87 42 147 108 q-95 117 -119 256 l-44 0 ZM650 341 q19 -101 87 -187 q48 79 73 187 l-160 0 Z" /><glyph glyph-name="" unicode="&#x62e9;" d="M407 786 l483 0 l0 -80 q-35 -106 -137 -185 q90 -37 214 -51 l-34 -85 q-164 21 -268 80 q-103 -52 -248 -87 l-46 81 q122 27 210 66 q-80 71 -118 176 l-56 0 l0 85 ZM556 701 q36 -80 108 -131 q89 58 128 131 l-236 0 ZM76 -94 l-21 92 q43 -5 75 -5 q36 0 36 36 l0 211 q-64 -21 -110 -35 l-24 95 q80 18 134 35 l0 210 l-114 0 l0 91 l114 0 l0 181 l96 0 l0 -181 l104 0 l0 -91 l-104 0 l0 -175 q52 20 106 48 l0 -96 q-70 -32 -106 -46 l0 -272 q0 -98 -99 -98 l-87 0 ZM427 322 l192 0 l0 77 l92 0 l0 -77 l188 0 l0 -86 l-188 0 l0 -93 l239 0 l0 -88 l-239 0 l0 -146 l-92 0 l0 146 l-244 0 l0 88 l244 0 l0 93 l-192 0 l0 86 Z" /><glyph glyph-name="" unicode="&#x63d0;" d="M76 -94 l-21 92 q45 -5 77 -5 q34 0 34 33 l0 216 q-34 -13 -104 -37 l-23 96 q59 14 127 38 l0 206 l-113 0 l0 91 l113 0 l0 181 l96 0 l0 -181 l93 0 l0 -91 l-93 0 l0 -166 q36 17 76 39 l0 -97 l-76 -38 l0 -281 q0 -96 -97 -96 l-89 0 ZM423 789 l450 0 l0 -361 l-450 0 l0 361 ZM780 505 l0 68 l-265 0 l0 -68 l265 0 ZM515 645 l265 0 l0 67 l-265 0 l0 -67 ZM358 376 l575 0 l0 -85 l-240 0 l0 -92 l197 0 l0 -84 l-197 0 l0 -106 q65 -7 130 -7 q81 0 138 6 l-26 -92 q-42 0 -106 2 q-201 2 -273 37 q-53 27 -95 96 q-34 -82 -90 -153 l-71 61 q108 135 120 299 l84 -10 q-3 -50 -14 -103 q46 -89 103 -112 l9 -3 l0 261 l-244 0 l0 85 Z" /><glyph glyph-name="" unicode="&#x641c;" d="M467 531 l0 -77 l138 0 l0 361 l89 0 l0 -361 l137 0 l0 77 l-96 0 l0 76 l96 0 l0 88 l-95 0 l0 80 l181 0 l0 -400 l-223 0 l0 -77 l218 0 l0 -80 q-48 -99 -156 -171 q97 -39 209 -62 l-35 -89 q-156 34 -272 95 q-123 -58 -297 -96 l-47 85 q151 28 254 68 q-94 71 -146 165 l-48 0 l0 85 l231 0 l0 77 l-226 0 l0 371 q78 20 151 65 l53 -71 q-57 -28 -116 -49 l0 -85 l96 0 l0 -75 l-96 0 ZM521 213 q55 -70 142 -121 q96 53 146 121 l-288 0 ZM72 -94 l-20 90 q51 -7 83 -7 q31 0 31 38 l0 215 q-79 -28 -101 -35 l-22 90 q54 13 123 37 l0 211 l-103 0 l0 91 l103 0 l0 174 l92 0 l0 -174 l83 0 l0 -91 l-83 0 l0 -174 q43 20 91 45 l0 -93 q-39 -20 -91 -43 l0 -276 q0 -98 -91 -98 l-95 0 Z" /><glyph glyph-name="" unicode="&#x64cd;" d="M444 789 l397 0 l0 -220 l-397 0 l0 220 ZM755 643 l0 72 l-226 0 l0 -72 l226 0 ZM668 522 l250 0 l0 -208 l-250 0 l0 208 ZM841 380 l0 76 l-96 0 l0 -76 l96 0 ZM348 245 l249 0 l0 51 l91 0 l0 -51 l249 0 l0 -85 l-161 0 q62 -76 189 -140 l-61 -76 q-146 99 -208 216 l-8 0 l0 -260 l-91 0 l0 260 l-7 0 q-75 -136 -234 -225 l-49 81 q131 57 199 144 l-158 0 l0 85 ZM369 522 l249 0 l0 -208 l-249 0 l0 208 ZM541 380 l0 76 l-95 0 l0 -76 l95 0 ZM75 -93 l-20 90 q37 -5 64 -5 q37 0 37 37 l0 212 q-45 -17 -95 -33 l-23 95 q68 17 118 35 l0 207 l-104 0 l0 91 l104 0 l0 180 l94 0 l0 -180 l93 0 l0 -91 l-93 0 l0 -170 q48 22 87 43 l0 -94 q-29 -15 -87 -43 l0 -276 q0 -98 -98 -98 l-77 0 Z" /><glyph glyph-name="" unicode="&#x2f40;&#x652f;" d="M450 820 l98 0 l0 -123 l383 0 l0 -92 l-383 0 l0 -131 l266 0 l0 -84 q-79 -161 -230 -277 q74 -39 147 -67 q117 -42 227 -67 l-55 -84 q-126 33 -247 83 q-76 33 -153 79 q-165 -102 -401 -166 l-55 85 q218 49 374 137 q-77 60 -131 130 q-52 65 -75 142 l-70 0 l0 89 l305 0 l0 131 l-381 0 l0 92 l381 0 l0 123 ZM501 163 q134 96 205 222 l-397 0 q28 -71 78 -124 q52 -57 114 -98 Z" /><glyph glyph-name="" unicode="&#x6548;" d="M256 560 q-64 -138 -150 -240 l-77 55 q86 95 145 225 l82 -40 ZM438 404 q-63 80 -132 146 l58 57 q59 -48 136 -140 l-62 -63 ZM189 358 q63 -50 106 -90 q33 66 53 133 l83 -35 q-28 -95 -64 -166 q58 -57 112 -118 l-67 -75 q-51 61 -96 107 q-91 -134 -228 -211 l-58 85 q130 71 217 196 q-71 67 -118 106 l60 68 ZM295 826 q22 -50 41 -104 l184 0 l0 -91 l-469 0 l0 91 l192 0 q-19 44 -47 88 l99 16 ZM659 574 l-20 -60 q31 -131 80 -239 q61 133 68 299 l-128 0 ZM668 185 q-50 98 -82 209 q-23 -43 -50 -80 l-60 74 q104 163 140 436 l94 -16 q-13 -78 -27 -142 l269 0 l0 -92 l-77 0 q-11 -230 -103 -396 q80 -128 196 -198 l-57 -83 q-112 74 -193 200 q-94 -123 -239 -204 l-54 87 q155 78 243 205 Z" /><glyph glyph-name="" unicode="&#x6559;" d="M913 -103 q-99 98 -170 210 q-86 -123 -223 -208 l-54 87 q144 81 225 211 q-60 118 -90 242 q-26 -46 -57 -85 l-57 71 q104 147 141 396 l93 -16 q-10 -59 -28 -130 l247 0 l0 -91 l-55 0 q-9 -227 -93 -394 q76 -124 178 -210 l-57 -83 ZM666 584 l-16 -43 q35 -142 88 -252 q52 129 60 295 l-132 0 ZM102 733 l121 0 l0 79 l91 0 l0 -79 l100 0 l0 -84 l-100 0 l0 -82 l42 0 q78 98 135 213 l74 -39 q-48 -91 -104 -174 l56 0 l0 -87 l-123 0 q-33 -39 -65 -71 l156 0 l0 -68 q-49 -58 -117 -117 l0 -32 q102 16 170 35 l0 -88 q-65 -18 -170 -33 l0 -98 q0 -101 -100 -101 l-93 0 l-24 85 q60 -7 81 -7 q44 0 44 48 l0 61 q-79 -10 -209 -22 l-13 91 q112 6 222 17 l0 62 q48 34 97 83 l-137 0 q-72 -56 -143 -96 l-59 67 q37 21 67 40 l0 73 l100 0 q49 42 78 71 l-224 0 l0 87 l168 0 l0 82 l-121 0 l0 84 Z" /><glyph glyph-name="" unicode="&#x6570;" d="M667 584 l-12 -45 q35 -154 87 -270 q47 133 53 315 l-128 0 ZM699 171 q-52 103 -90 233 q-27 -63 -50 -101 l-60 74 q84 165 114 444 l93 -16 q-11 -83 -20 -130 l254 0 l0 -91 l-57 0 q-9 -244 -88 -415 q76 -123 176 -189 l-55 -80 q-95 69 -167 182 q-73 -113 -178 -188 l-50 81 q112 75 178 196 ZM223 356 l92 -10 l-17 -46 l203 0 l0 -80 q-27 -90 -95 -158 q73 -33 117 -56 l-51 -76 q-57 33 -140 72 q-97 -63 -248 -103 l-46 81 q112 27 193 66 q-47 20 -131 53 q38 63 65 116 l-104 0 l0 85 l142 0 l20 56 ZM316 99 q65 50 97 116 l-152 0 q-20 -40 -45 -79 q57 -20 100 -37 ZM153 800 q32 -52 61 -119 l-74 -34 q-31 75 -66 127 l79 26 ZM512 769 q-31 -66 -76 -125 l-70 37 q41 58 71 124 l75 -36 ZM64 635 l189 0 l0 184 l87 0 l0 -184 l174 0 l0 -83 l-174 0 l0 -5 q75 -31 162 -77 l-50 -75 q-71 57 -112 83 l0 -112 l-87 0 l0 169 q-49 -108 -165 -189 l-47 77 q103 59 149 129 l-126 0 l0 83 Z" /><glyph glyph-name="" unicode="&#x65b0;" d="M939 728 q-127 -44 -285 -55 l0 -162 l310 0 l0 -91 l-97 0 l0 -524 l-93 0 l0 524 l-120 0 l0 -101 q-7 -263 -117 -421 l-67 72 q86 127 92 349 l0 432 q181 3 331 61 l46 -84 ZM58 741 l179 0 q-22 43 -43 74 l98 16 q22 -45 38 -90 l185 0 l0 -88 l-457 0 l0 88 ZM48 514 l106 0 q-20 54 -45 98 l83 31 q27 -60 46 -129 l95 0 q24 64 42 130 l85 -30 q-17 -51 -41 -100 l102 0 l0 -87 l-185 0 l0 -90 l168 0 l0 -86 l-168 0 l0 -267 q0 -91 -99 -91 l-52 0 l-21 88 q23 -6 42 -6 q36 0 36 32 l0 244 l-178 0 l0 86 l178 0 l0 90 l-194 0 l0 87 ZM210 189 q-37 -154 -101 -264 l-78 50 q66 107 93 232 l86 -18 ZM437 214 q41 -100 62 -174 l-80 -30 q-24 93 -60 183 l78 21 Z" /><glyph glyph-name="" unicode="&#x2f47;&#x65e5;" d="M830 786 l0 -884 l-95 0 l0 70 l-451 0 l0 -71 l-95 0 l0 885 l641 0 ZM284 65 l451 0 l0 278 l-451 0 l0 -278 ZM284 436 l451 0 l0 258 l-451 0 l0 -258 Z" /><glyph glyph-name="" unicode="&#x65f6;" d="M377 751 l0 -749 l-92 0 l0 62 l-120 0 l0 -86 l-93 0 l0 773 l305 0 ZM165 152 l120 0 l0 217 l-120 0 l0 -217 ZM165 458 l120 0 l0 207 l-120 0 l0 -207 ZM527 449 q94 -143 140 -244 l-79 -55 q-53 112 -140 250 l79 49 ZM568 -93 l-21 92 q97 -5 166 -5 q36 0 36 39 l0 520 l-333 0 l0 91 l333 0 l0 168 l97 0 l0 -168 l112 0 l0 -91 l-112 0 l0 -544 q0 -102 -101 -102 l-177 0 Z" /><glyph glyph-name="" unicode="&#x667a;" d="M188 671 q-31 -44 -66 -76 l144 0 q6 38 9 76 l-87 0 ZM240 508 l-186 0 l0 87 l45 0 l-47 59 q71 63 121 175 l85 -18 q-7 -20 -23 -56 l274 0 l0 -84 l-143 0 q-4 -50 -8 -76 l179 0 l0 -87 l-199 0 l-4 -14 q108 -55 188 -114 l-59 -60 l382 0 l0 -425 l-96 0 l0 39 l-472 0 l0 -39 l-95 0 l0 411 q-49 -30 -83 -46 l-64 77 q155 69 203 167 l2 4 ZM277 18 l472 0 l0 66 l-472 0 l0 -66 ZM277 166 l472 0 l0 70 l-472 0 l0 -70 ZM446 320 q-59 53 -143 105 q-36 -56 -101 -105 l244 0 ZM568 754 l350 0 l0 -378 l-350 0 l0 378 ZM825 459 l0 211 l-164 0 l0 -211 l164 0 Z" /><glyph glyph-name="" unicode="&#x6709;" d="M362 447 l0 -88 l374 0 l0 88 l-374 0 ZM736 276 l-374 0 l0 -86 l374 0 l0 86 ZM736 108 l-374 0 l0 -209 l-89 0 l0 499 q-79 -93 -173 -169 l-61 80 q175 139 274 316 l-247 0 l0 92 l293 0 q18 44 40 109 l97 -11 q-16 -53 -33 -98 l483 0 l0 -92 l-524 0 q-22 -46 -53 -96 l456 0 l0 -541 q0 -82 -96 -85 l-112 0 l-23 86 q62 -5 105 -5 q37 0 37 33 l0 91 Z" /><glyph glyph-name="" unicode="&#x671f;" d="M114 815 l92 0 l0 -103 l173 0 l0 101 l92 0 l0 -101 l52 0 l0 -88 l-52 0 l0 -401 l57 0 l0 -88 l-479 0 l0 88 l65 0 l0 401 l-54 0 l0 88 l54 0 l0 103 ZM206 223 l173 0 l0 78 l-173 0 l0 -78 ZM379 624 l-173 0 l0 -79 l173 0 l0 79 ZM206 384 l173 0 l0 78 l-173 0 l0 -78 ZM384 123 q61 -77 98 -139 q85 133 86 326 l0 478 l354 0 l0 -784 q0 -98 -98 -98 l-104 0 l-26 93 q72 -4 100 -4 q33 0 33 43 l0 180 l-170 0 q-21 -196 -120 -328 l-68 63 l-57 -40 q-35 71 -101 163 l73 47 ZM243 84 q-53 -105 -127 -185 l-75 54 q72 71 126 168 l76 -37 ZM663 459 l0 -154 l164 0 l0 154 l-164 0 ZM827 545 l0 153 l-164 0 l0 -153 l164 0 Z" /><glyph glyph-name="" unicode="&#x673a;" d="M55 632 l141 0 l0 187 l94 0 l0 -187 l116 0 l0 -91 l-116 0 l0 -42 q64 -61 137 -147 l-56 -84 q-49 87 -81 137 l0 -503 l-94 0 l0 469 q-46 -127 -121 -241 l-41 103 q107 134 157 308 l-136 0 l0 91 ZM348 -40 q62 92 87 193 q20 89 20 252 l0 381 l343 0 l0 -758 q0 -18 14 -18 l31 0 q14 0 21 6 q7 7 10 20 q7 28 7 179 l87 -27 q0 -109 -8 -170 q-6 -55 -29 -78 q-25 -19 -76 -19 l-44 0 q-109 0 -109 97 l0 678 l-153 0 l0 -291 q0 -168 -27 -285 q-25 -118 -96 -230 l-78 70 Z" /><glyph glyph-name="" unicode="&#x679c;" d="M153 786 l691 0 l0 -404 l-296 0 l0 -74 l395 0 l0 -88 l-319 0 q105 -121 342 -219 l-66 -83 q-249 135 -352 298 l0 -317 l-96 0 l0 318 q-112 -181 -360 -298 l-55 88 q227 83 338 213 l-318 0 l0 88 l395 0 l0 74 l-299 0 l0 404 ZM749 464 l0 77 l-201 0 l0 -77 l201 0 ZM452 464 l0 77 l-204 0 l0 -77 l204 0 ZM248 623 l204 0 l0 79 l-204 0 l0 -79 ZM548 702 l0 -79 l201 0 l0 79 l-201 0 Z" /><glyph glyph-name="" unicode="&#x6821;" d="M58 634 l128 0 l0 184 l95 0 l0 -184 l96 0 l0 -91 l-96 0 l0 -74 q51 -58 93 -109 q85 97 144 223 l79 -39 q-45 -95 -101 -176 l73 22 q18 -115 93 -207 q58 90 81 214 l90 -18 q-29 -156 -101 -265 q93 -78 236 -132 l-49 -85 q-150 60 -246 144 q-105 -105 -264 -150 l-55 85 q155 40 250 135 q-89 107 -115 247 q-16 -21 -55 -69 l-21 15 l-50 -72 q-53 103 -82 151 l0 -481 l-95 0 l0 470 q-45 -129 -114 -237 l-41 103 q105 135 151 305 l-124 0 l0 91 ZM397 699 l232 0 q-24 62 -54 114 l96 16 q25 -53 54 -130 l216 0 l0 -92 l-544 0 l0 92 ZM794 588 q112 -137 172 -238 l-79 -54 q-60 109 -167 246 l74 46 Z" /><glyph glyph-name="" unicode="&#x6b21;" d="M510 583 q-45 -130 -116 -209 l-80 57 q120 143 153 396 l96 -16 q-14 -83 -26 -133 l389 0 l0 -64 q-35 -135 -87 -266 l-98 29 q47 86 79 206 l-310 0 ZM128 795 q108 -135 168 -237 l-81 -55 q-62 106 -170 240 l83 52 ZM301 341 q-73 -224 -162 -419 l-97 43 q96 197 169 411 l90 -35 ZM672 524 q0 -92 -11 -177 q87 -233 306 -371 l-71 -83 q-174 126 -267 308 l-4 -14 q-57 -178 -273 -295 l-65 81 q185 98 242 240 q46 121 47 311 l96 0 Z" /><glyph glyph-name="" unicode="&#x6b22;" d="M640 817 q-11 -83 -25 -144 l317 0 l0 -62 q-24 -129 -60 -255 l-93 26 q33 88 54 200 l-243 0 q-37 -113 -92 -183 l-76 55 q97 137 124 378 l94 -15 ZM382 54 q-40 62 -95 141 q-84 -167 -204 -263 l-47 85 q120 90 195 255 q-88 116 -178 216 l63 61 q66 -66 154 -176 q36 111 57 248 l-274 0 l0 92 l367 0 l0 -88 q-33 -184 -89 -332 q61 -82 120 -169 l-69 -70 ZM731 522 q0 -101 -12 -188 q72 -225 247 -363 l-64 -75 q-138 122 -213 294 q-1 0 -1 -2 q-52 -176 -249 -292 l-60 74 q167 100 217 241 q40 120 42 311 l93 0 Z" /><glyph glyph-name="" unicode="&#x2f4c;&#x6b62;" d="M496 813 l96 0 l0 -315 l303 0 l0 -92 l-303 0 l0 -379 l355 0 l0 -93 l-894 0 l0 93 l162 0 l0 611 l96 0 l0 -611 l185 0 l0 786 Z" /><glyph glyph-name="" unicode="&#x6bb5;" d="M204 490 l0 -102 l215 0 l0 -87 l-215 0 l0 -133 q155 15 250 40 l0 -88 q-87 -23 -250 -42 l0 -175 l-92 0 l0 165 l-58 -6 l-15 95 l73 4 l0 582 q184 25 302 77 l48 -81 q-120 -43 -258 -68 l0 -93 l215 0 l0 -88 l-215 0 ZM469 398 l426 0 l0 -83 q-38 -133 -123 -229 q84 -65 198 -112 l-51 -82 q-125 58 -211 132 q-99 -81 -248 -133 l-53 80 q139 48 232 122 q-86 100 -116 217 l-54 0 l0 88 ZM610 310 q27 -88 91 -159 q65 72 99 159 l-190 0 ZM537 787 l303 0 l0 -208 q0 -36 35 -36 l79 0 l0 -85 l-105 0 q-101 0 -101 100 l0 141 l-118 0 l0 -48 q0 -146 -127 -228 l-63 72 q97 52 97 146 l0 146 Z" /><glyph glyph-name="" unicode="&#x2e9f;&#x6bcd;" d="M117 63 q33 170 50 325 l-117 0 l0 92 l126 0 q15 155 18 307 l647 0 q-4 -170 -9 -307 l120 0 l0 -92 l-123 0 q-4 -100 -11 -236 l107 0 l0 -89 l-114 0 l-5 -37 q-18 -60 -61 -91 q-48 -28 -133 -28 l-98 0 l-31 91 q72 -5 116 -5 q37 0 70 10 q30 12 45 53 l2 7 l-599 0 ZM724 152 q6 118 11 236 l-472 0 q-16 -134 -34 -236 l495 0 ZM738 480 l7 218 l-460 0 q-7 -140 -13 -218 l466 0 ZM457 680 q86 -55 161 -133 l-57 -65 q-77 80 -167 141 l63 57 ZM431 372 q93 -66 168 -141 l-59 -65 q-86 86 -166 142 l57 64 Z" /><glyph glyph-name="" unicode="&#x6e20;" d="M867 451 l-395 0 l0 -56 l452 0 l0 -84 l-544 0 l0 482 l533 0 l0 -85 l-441 0 l0 -54 l395 0 l0 -203 ZM472 579 l0 -54 l305 0 l0 54 l-305 0 ZM66 230 l389 0 l0 56 l94 0 l0 -56 l388 0 l0 -86 l-296 0 q110 -86 321 -137 l-45 -93 q-252 87 -364 230 l-4 0 l0 -248 l-94 0 l0 248 l-3 0 q-95 -136 -356 -239 l-55 90 q232 68 325 149 l-300 0 l0 86 ZM167 823 q99 -43 174 -101 l-49 -75 q-83 65 -175 102 l50 74 ZM110 674 q83 -34 150 -79 l-49 -75 q-75 52 -150 80 l49 74 ZM347 485 q-108 -129 -218 -209 l-67 75 q116 78 214 188 l71 -54 Z" /><glyph glyph-name="" unicode="&#x70b9;" d="M437 814 l94 0 l0 -88 l381 0 l0 -89 l-381 0 l0 -106 l318 0 l0 -339 l-682 0 l0 339 l270 0 l0 283 ZM754 280 l0 162 l-493 0 l0 -162 l493 0 ZM244 120 q-53 -126 -127 -222 l-78 57 q72 86 126 204 l79 -39 ZM403 127 q30 -95 54 -209 l-96 -22 q-18 118 -47 212 l89 19 ZM611 140 q42 -100 76 -220 l-94 -22 q-28 125 -71 224 l89 18 ZM811 162 q94 -122 145 -214 l-79 -55 q-56 105 -142 220 l76 49 Z" /><glyph glyph-name="" unicode="&#x7248;" d="M278 809 l93 0 l0 -256 l57 0 l0 -95 l-233 0 l0 -41 q0 -27 -2 -75 l191 0 l0 -441 l-93 0 l0 346 l-103 0 q-18 -216 -80 -334 l-71 62 q62 140 63 442 l0 372 l95 0 l0 -236 l83 0 l0 256 ZM556 446 l0 -84 q-6 -289 -102 -460 l-65 69 q74 139 80 391 l0 388 q240 5 427 64 l46 -85 q-174 -51 -386 -60 l0 -133 l365 0 l0 -81 q-34 -201 -122 -337 q70 -91 166 -140 l-47 -83 q-104 53 -178 145 q-79 -88 -186 -146 l-45 84 q102 57 176 143 q-76 132 -106 325 l-23 0 ZM664 446 q28 -143 80 -241 q62 108 86 241 l-166 0 Z" /><glyph glyph-name="" unicode="&#x7269;" d="M581 799 q-15 -72 -33 -132 l381 0 q0 -516 -15 -636 q-18 -129 -169 -129 l-75 4 l-22 85 q53 -5 83 -5 q83 0 95 87 q9 75 12 502 l-45 0 q-34 -248 -89 -386 q-68 -156 -205 -284 l-59 75 q121 109 185 249 q56 134 82 346 l-58 0 q-62 -322 -226 -468 l-61 71 q148 127 203 397 l-50 0 q-40 -93 -88 -151 l-70 59 q95 119 134 339 l90 -23 ZM147 527 q-10 -61 -31 -139 l-83 23 q45 159 51 333 l84 -6 q-3 -61 -9 -119 l52 0 l0 200 l92 0 l0 -200 l73 0 l0 -92 l-73 0 l0 -211 l69 33 l0 -90 q-46 -22 -69 -32 l0 -330 l-92 0 l0 293 q-64 -25 -144 -49 l-22 92 q90 19 166 46 l0 248 l-64 0 Z" /><glyph glyph-name="" unicode="&#x72b6;" d="M258 814 l93 0 l0 -914 l-93 0 l0 328 q-90 -94 -191 -171 l-30 99 q123 82 221 183 l0 475 ZM136 715 q53 -116 94 -253 l-83 -38 q-44 146 -101 261 l90 30 ZM809 800 q77 -86 119 -152 l-75 -52 q-45 74 -118 159 l74 45 ZM698 817 q0 -105 -3 -258 l236 0 l0 -91 l-228 0 q66 -318 264 -495 l-65 -72 q-178 172 -242 418 q-67 -252 -224 -421 l-64 71 q191 219 222 499 l-191 0 l0 91 l197 0 q5 187 5 258 l93 0 Z" /><glyph glyph-name="" unicode="&#x7406;" d="M418 787 l495 0 l0 -479 l-200 0 l0 -101 l211 0 l0 -88 l-211 0 l0 -103 l243 0 l0 -91 l-580 0 l0 91 l243 0 l0 103 l-213 0 l0 88 l213 0 l0 101 l-201 0 l0 479 ZM822 392 l0 114 l-109 0 l0 -114 l109 0 ZM619 392 l0 114 l-110 0 l0 -114 l110 0 ZM509 588 l110 0 l0 115 l-110 0 l0 -115 ZM713 703 l0 -115 l109 0 l0 115 l-109 0 ZM62 458 l99 0 l0 213 l-113 0 l0 90 l321 0 l0 -90 l-112 0 l0 -213 l101 0 l0 -92 l-101 0 l0 -197 q67 25 109 44 l0 -91 q-144 -60 -306 -102 l-23 91 q68 13 124 28 l0 227 l-99 0 l0 92 Z" /><glyph glyph-name="" unicode="&#x2f63;&#x751f;" d="M250 552 q-60 -136 -151 -225 l-62 79 q135 143 183 384 l97 -17 q-15 -69 -33 -129 l186 0 l0 168 l95 0 l0 -168 l321 0 l0 -92 l-321 0 l0 -207 l301 0 l0 -92 l-301 0 l0 -228 l385 0 l0 -94 l-887 0 l0 94 l407 0 l0 228 l-286 0 l0 92 l286 0 l0 207 l-220 0 Z" /><glyph glyph-name="" unicode="&#x2f64;&#x7528;" d="M226 457 l0 -153 l230 0 l0 153 l-230 0 ZM221 216 q-18 -189 -111 -312 l-73 65 q90 129 93 327 l0 490 l767 0 l0 -753 q0 -113 -115 -113 l-115 0 l-25 93 q65 -5 109 -5 q49 0 49 59 l0 149 l-248 0 l0 -285 l-96 0 l0 285 l-235 0 ZM800 304 l0 153 l-248 0 l0 -153 l248 0 ZM800 544 l0 150 l-248 0 l0 -150 l248 0 ZM456 694 l-230 0 l0 -150 l230 0 l0 150 Z" /><glyph glyph-name="" unicode="&#x767b;" d="M216 401 l572 0 l0 -255 l-572 0 l0 255 ZM693 230 l0 88 l-382 0 l0 -88 l382 0 ZM322 135 q50 -53 89 -121 l191 0 q41 59 75 125 l89 -31 q-26 -47 -62 -94 l226 0 l0 -90 l-862 0 l0 90 l242 0 q-32 47 -78 88 l90 33 ZM164 686 q68 -48 126 -103 q56 56 92 119 l-234 0 l0 87 l342 0 l0 -71 q-37 -92 -99 -163 l264 0 q-95 100 -148 220 l78 44 q24 -60 60 -110 q53 41 97 95 l67 -59 q-46 -56 -112 -103 q29 -34 60 -62 q66 51 111 111 l67 -59 q-50 -62 -110 -108 q68 -52 151 -93 l-63 -73 q-119 67 -210 149 l0 -38 l-366 0 l0 32 q-96 -85 -240 -145 l-57 75 q102 41 183 97 q-49 44 -123 97 l64 61 Z" /><glyph glyph-name="" unicode="&#x2f6c;&#x76ee;" d="M860 771 l0 -873 l-95 0 l0 59 l-530 0 l0 -59 l-95 0 l0 873 l720 0 ZM235 49 l530 0 l0 149 l-530 0 l0 -149 ZM235 286 l530 0 l0 155 l-530 0 l0 -155 ZM235 529 l530 0 l0 150 l-530 0 l0 -150 Z" /><glyph glyph-name="" unicode="&#x7701;" d="M441 822 l93 0 l0 -255 l-93 0 l0 255 ZM216 368 q-88 -18 -132 -26 l-39 86 q454 72 695 228 q-49 39 -105 78 l64 61 q155 -108 259 -212 l-66 -67 q-39 44 -85 84 q-133 -91 -319 -157 l354 0 l0 -543 l-93 0 l0 38 l-441 0 l0 -40 l-92 0 l0 470 ZM308 22 l441 0 l0 67 l-441 0 l0 -67 ZM308 165 l441 0 l0 61 l-441 0 l0 -61 ZM308 301 l441 0 l0 63 l-441 0 l0 -63 ZM351 706 q-89 -111 -219 -191 l-55 71 q125 79 207 179 l67 -59 Z" /><glyph glyph-name="" unicode="&#x77e5;" d="M923 722 l0 -780 l-92 0 l0 57 l-175 0 l0 -58 l-92 0 l0 781 l359 0 ZM656 88 l175 0 l0 545 l-175 0 l0 -545 ZM205 603 q-33 -73 -77 -138 l-83 53 q97 142 137 303 l94 -20 q-11 -42 -34 -107 l273 0 l0 -91 l-136 0 q-3 -106 -11 -173 l156 0 l0 -91 l-169 0 l-13 -64 q88 -89 187 -207 l-58 -88 q-93 132 -156 207 q-64 -159 -215 -266 l-62 76 q156 115 205 283 l13 59 l-197 0 l0 91 l211 0 q8 67 11 173 l-76 0 Z" /><glyph glyph-name="" unicode="&#x7801;" d="M389 476 l0 -527 l-88 0 l0 49 l-86 0 l0 -68 l-88 0 l0 377 q-27 -44 -49 -75 l-47 76 q103 164 139 372 l-110 0 l0 92 l347 0 l0 -92 l-147 0 q-19 -109 -54 -204 l183 0 ZM215 85 l86 0 l0 305 l-86 0 l0 -305 ZM502 637 l93 -6 l-42 -240 l191 0 l45 305 l-342 0 l0 90 l446 0 l-53 -395 l102 0 q0 -374 -43 -432 q-43 -57 -182 -57 q-28 0 -88 4 l-26 92 q70 -8 91 -8 q113 0 134 45 q24 47 24 267 l-404 0 l54 335 ZM425 197 l372 0 l0 -90 l-372 0 l0 90 Z" /><glyph glyph-name="" unicode="&#x786e;" d="M537 321 l0 -102 l-1 -8 l106 0 l0 110 l-105 0 ZM530 130 q-18 -139 -83 -230 l-69 61 q69 102 72 259 l0 310 l-30 -27 l-59 71 q110 89 191 248 l91 -21 l-25 -49 l234 0 l0 -67 q-36 -52 -79 -96 l155 0 l0 -606 q0 -74 -86 -74 l-69 0 l-22 85 q37 -5 64 -5 q24 0 24 25 l0 116 l-110 0 l0 -215 l-87 0 l0 215 l-112 0 ZM671 589 q32 32 71 84 l-171 0 q-26 -39 -64 -84 l164 0 ZM839 211 l0 110 l-110 0 l0 -110 l110 0 ZM839 403 l0 103 l-110 0 l0 -103 l110 0 ZM642 506 l-105 0 l0 -103 l105 0 l0 103 ZM64 772 l340 0 l0 -92 l-145 0 q-19 -116 -50 -205 l174 0 l0 -477 l-167 0 l0 -68 l-90 0 l0 359 q-13 -22 -39 -62 l-56 88 q102 162 135 365 l-102 0 l0 92 ZM216 85 l81 0 l0 302 l-81 0 l0 -302 Z" /><glyph glyph-name="" unicode="&#x79d1;" d="M950 286 l15 -92 l-94 -15 l0 -279 l-96 0 l0 263 l-301 -48 l-14 92 l315 51 l0 558 l96 0 l0 -543 l79 13 ZM571 765 q100 -71 173 -145 l-65 -66 q-61 67 -175 146 l67 65 ZM541 535 q104 -74 177 -152 l-68 -67 q-64 71 -176 154 l67 65 ZM60 558 l156 0 l0 125 q-88 -12 -137 -16 l-18 89 q193 15 346 60 l33 -89 q-66 -18 -128 -29 l0 -140 l128 0 l0 -91 l-128 0 l0 -39 q80 -60 162 -138 l-53 -81 q-71 87 -109 128 l0 -437 l-96 0 l0 431 q-57 -135 -145 -241 l-42 106 q121 121 176 271 l-145 0 l0 91 Z" /><glyph glyph-name="" unicode="&#x79f0;" d="M55 554 l138 0 l0 120 q-41 -5 -117 -13 l-19 89 q186 15 330 60 l33 -90 q-60 -17 -136 -31 l0 -135 l110 0 l0 -91 l-110 0 l0 -44 q72 -63 141 -133 l-54 -80 q-51 78 -87 126 l0 -431 l-91 0 l0 421 q-50 -133 -122 -236 l-42 106 q104 118 152 271 l-126 0 l0 91 ZM531 -98 l-21 91 q44 -6 83 -6 q34 0 34 37 l0 497 l96 0 l0 -521 q0 -98 -97 -98 l-95 0 ZM576 363 q-43 -203 -119 -343 l-82 52 q80 144 114 309 l87 -18 ZM853 390 q68 -164 115 -340 l-88 -39 q-52 201 -112 351 l85 28 ZM576 597 q-43 -93 -101 -165 l-59 75 q98 129 132 314 l94 -11 q-11 -58 -31 -122 l323 0 l0 -61 q-16 -97 -44 -199 l-92 27 q22 57 41 142 l-263 0 Z" /><glyph glyph-name="" unicode="&#x7a0b;" d="M460 787 l439 0 l0 -303 l-439 0 l0 303 ZM807 569 l0 134 l-254 0 l0 -134 l254 0 ZM429 407 l503 0 l0 -86 l-210 0 l0 -104 l179 0 l0 -85 l-179 0 l0 -111 l234 0 l0 -90 l-565 0 l0 90 l235 0 l0 111 l-174 0 l0 85 l174 0 l0 104 l-197 0 l0 86 ZM55 554 l138 0 l0 121 q-70 -9 -118 -14 l-19 89 q181 15 331 61 l33 -90 q-60 -17 -136 -31 l0 -136 l115 0 l0 -91 l-115 0 l0 -42 q57 -54 136 -139 l-53 -80 q-55 89 -83 129 l0 -430 l-91 0 l0 417 q-49 -130 -121 -232 l-42 106 q104 118 152 271 l-127 0 l0 91 Z" /><glyph glyph-name="" unicode="&#x7b54;" d="M206 657 q-35 -66 -81 -124 l-80 52 q94 115 134 243 l90 -19 l-24 -66 l253 0 l0 -86 l-124 0 q25 -46 38 -76 l-86 -31 q-19 51 -49 107 l-71 0 ZM622 657 q-33 -53 -56 -83 l-78 50 q75 93 108 203 l91 -19 q-13 -38 -24 -65 l288 0 l0 -86 l-148 0 q32 -53 50 -93 l-85 -31 q-25 59 -61 124 l-85 0 ZM810 226 l0 -328 l-91 0 l0 38 l-438 0 l0 -38 l-91 0 l0 328 l620 0 ZM281 22 l438 0 l0 118 l-438 0 l0 -118 ZM266 347 q-87 -44 -177 -80 l-46 83 q253 89 425 225 l62 0 q189 -147 433 -231 l-46 -82 q-96 35 -181 81 l0 -41 l-470 0 l0 45 ZM655 390 q-83 51 -156 113 q-71 -62 -156 -113 l312 0 Z" /><glyph glyph-name="" unicode="&#x7ba1;" d="M792 427 l0 -210 l-487 0 l0 -53 l534 0 l0 -267 l-95 0 l0 36 l-439 0 l0 -35 l-95 0 l0 529 l582 0 ZM305 17 l439 0 l0 72 l-439 0 l0 -72 ZM305 293 l394 0 l0 58 l-394 0 l0 -58 ZM930 552 l0 -191 l-93 0 l0 111 l-674 0 l0 -111 l-93 0 l0 191 l387 0 q-11 27 -26 54 l84 14 l-17 11 q71 92 100 193 l91 -20 l-17 -49 l278 0 l0 -83 l-163 0 q20 -27 40 -64 l-84 -31 q-25 50 -57 95 l-51 0 q-26 -51 -57 -92 l-48 31 q4 -8 23 -59 l377 0 ZM205 672 q-34 -56 -72 -101 l-83 52 q86 92 124 202 l91 -20 l-19 -50 l252 0 l0 -83 l-150 0 q31 -43 46 -72 l-87 -33 q-27 57 -58 105 l-44 0 Z" /><glyph glyph-name="" unicode="&#x7cfb;" d="M352 -100 l-22 93 q54 -6 102 -6 q32 0 32 33 l0 221 q-117 -7 -308 -16 l-26 83 q44 4 82 17 q113 49 243 145 q-143 -11 -256 -17 l-20 84 q33 3 64 17 q60 30 144 123 q-132 -5 -250 -5 l-28 82 q424 0 725 58 l47 -79 q-155 -34 -376 -49 q-78 -90 -162 -150 q140 8 210 13 q69 57 131 114 l88 -43 q-235 -204 -414 -305 q199 13 363 32 q-44 58 -68 87 l70 44 q124 -144 191 -253 l-76 -53 q-25 44 -62 99 q-100 -12 -217 -21 l0 -251 q0 -97 -94 -97 l-113 0 ZM694 202 q148 -107 250 -216 l-68 -68 q-86 102 -245 222 l63 62 ZM362 135 q-103 -123 -251 -213 l-60 78 q146 85 244 195 l67 -60 Z" /><glyph glyph-name="" unicode="&#x7d22;" d="M123 749 l329 0 l0 71 l96 0 l0 -71 l329 0 l0 -86 l-329 0 l0 -69 l378 0 l0 -195 l-92 0 l0 113 l-354 0 l44 -22 q-89 -68 -169 -112 q102 3 192 8 q53 36 103 73 l76 -51 q-156 -115 -342 -186 q117 4 327 16 q-38 42 -58 62 l69 43 q106 -105 164 -185 l-72 -51 q-29 43 -49 67 q-99 -5 -212 -12 l0 -175 q0 -89 -94 -89 l-91 0 l-19 88 q41 -6 79 -6 q31 0 31 29 l0 148 q-179 -8 -297 -11 l-19 85 q42 -3 81 -3 q102 29 213 90 l-200 -6 l-18 70 q20 4 44 17 q82 47 160 113 l-257 0 l0 -112 l-92 0 l0 194 l378 0 l0 69 l-329 0 l0 86 ZM653 123 q155 -55 283 -135 l-48 -76 q-138 90 -282 141 l47 70 ZM382 62 q-117 -89 -286 -147 l-39 84 q163 48 269 126 l56 -63 Z" /><glyph glyph-name="" unicode="&#x7ed3;" d="M412 21 q-157 -55 -347 -89 l-12 92 q206 33 359 87 l0 -90 ZM301 791 q-73 -184 -146 -295 q57 6 117 15 l56 106 l83 -30 q-130 -239 -214 -343 q102 21 203 57 l0 -85 q-166 -56 -317 -76 l-25 85 q25 10 43 27 q51 54 122 173 l-157 -22 l-23 87 q20 9 39 35 q77 139 130 300 l89 -34 ZM397 704 l231 0 l0 113 l95 0 l0 -113 l230 0 l0 -92 l-230 0 l0 -126 l201 0 l0 -92 l-494 0 l0 92 l198 0 l0 126 l-231 0 l0 92 ZM903 316 l0 -416 l-92 0 l0 40 l-264 0 l0 -40 l-93 0 l0 416 l449 0 ZM547 30 l264 0 l0 196 l-264 0 l0 -196 Z" /><glyph glyph-name="" unicode="&#x7edf;" d="M382 50 q-140 -71 -311 -112 l-11 95 q185 41 322 108 l0 -91 ZM299 788 q-73 -180 -144 -290 q51 6 102 15 q29 54 53 104 l85 -32 q-121 -230 -202 -336 q96 26 189 67 l0 -87 q-160 -67 -308 -91 l-25 88 q26 12 43 28 q47 50 117 171 q-54 -9 -144 -22 l-24 87 q22 9 41 37 q72 134 126 297 l91 -36 ZM391 455 q10 3 19 7 q45 33 116 169 l-155 0 l0 91 l243 0 q-18 48 -39 90 l97 16 q22 -55 38 -106 l219 0 l0 -91 l-304 0 q-55 -105 -102 -167 q123 12 242 30 l-60 82 l72 45 q98 -126 153 -224 l-74 -51 q-7 14 -40 70 q-186 -28 -404 -45 l-21 84 ZM578 340 q-7 -189 -47 -279 q-44 -93 -145 -162 l-60 75 q84 54 120 129 q34 71 40 237 l92 0 ZM788 -85 q-106 0 -106 95 l0 341 l91 0 l0 -323 q0 -25 18 -28 l56 0 q28 3 31 39 q5 45 5 116 l82 -29 q0 -141 -22 -176 q-20 -29 -91 -35 l-64 0 Z" /><glyph glyph-name="" unicode="&#x7f6e;" d="M68 541 l382 0 l5 47 l-324 0 l0 199 l738 0 l0 -199 l-319 0 l-5 -47 l387 0 l0 -71 l-399 0 l-10 -45 l286 0 l0 -436 l141 0 l0 -74 l-900 0 l0 74 l141 0 l0 436 l239 0 l9 45 l-371 0 l0 71 ZM285 -11 l430 0 l0 53 l-430 0 l0 -53 ZM285 98 l430 0 l0 50 l-430 0 l0 -50 ZM285 205 l430 0 l0 50 l-430 0 l0 -50 ZM285 312 l430 0 l0 49 l-430 0 l0 -49 ZM779 653 l0 65 l-126 0 l0 -65 l126 0 ZM568 653 l0 65 l-136 0 l0 -65 l136 0 ZM347 653 l0 65 l-126 0 l0 -65 l126 0 Z" /><glyph glyph-name="" unicode="&#x2f7c;&#x8001;" d="M379 38 q0 -35 37 -35 l329 0 q41 0 63 16 q23 17 32 106 l90 -30 q-15 -132 -56 -159 q-36 -24 -111 -24 l-376 0 q-104 0 -104 106 l0 189 q-105 -47 -204 -86 l-40 89 q233 64 442 200 l-428 0 l0 91 l342 0 l0 112 l-266 0 l0 92 l266 0 l0 118 l96 0 l0 -118 l236 0 l0 -90 q68 73 116 142 l74 -56 q-82 -114 -171 -200 l205 0 l0 -91 l-310 0 l-35 -26 q-96 -65 -227 -132 l0 -49 q271 29 476 97 l32 -90 q-238 -68 -508 -92 l0 -80 ZM605 501 q62 51 120 112 l-234 0 l0 -112 l114 0 Z" /><glyph glyph-name="" unicode="&#x804c;" d="M43 786 l403 0 l0 -88 l-48 0 l0 -523 l60 19 l0 -92 l-60 -17 l0 -189 l-92 0 l0 164 q-119 -30 -251 -54 l-23 91 l67 10 l0 591 l-56 0 l0 88 ZM189 123 q59 12 117 27 l0 127 l-117 0 l0 -154 ZM189 363 l117 0 l0 123 l-117 0 l0 -123 ZM189 572 l117 0 l0 126 l-117 0 l0 -126 ZM484 769 l434 0 l0 -489 l-434 0 l0 489 ZM825 369 l0 310 l-248 0 l0 -310 l248 0 ZM657 192 q-63 -170 -152 -299 l-79 57 q84 113 149 283 l82 -41 ZM817 236 q100 -161 157 -285 l-79 -56 q-54 129 -152 295 l74 46 Z" /><glyph glyph-name="" unicode="&#x80fd;" d="M191 234 l0 -73 l208 0 l0 73 l-208 0 ZM399 312 l0 77 l-208 0 l0 -77 l208 0 ZM191 82 l0 -187 l-92 0 l0 576 l392 0 l0 -465 q0 -104 -97 -104 l-79 0 l-23 89 l71 -4 q36 0 36 39 l0 56 l-208 0 ZM668 378 q-105 0 -105 115 l0 324 l94 0 l0 -119 q163 25 253 50 l31 -84 q-128 -30 -284 -53 l0 -98 q0 -50 37 -50 l119 0 q24 0 34 15 q13 20 16 101 l89 -29 q-12 -124 -40 -149 q-28 -23 -81 -23 l-163 0 ZM658 25 q0 -28 35 -28 l120 0 q23 0 34 14 q13 19 17 102 l87 -27 q-12 -126 -40 -151 q-26 -23 -80 -23 l-164 0 q-103 0 -103 93 l0 337 l94 0 l0 -110 q136 14 252 49 l31 -85 q-126 -34 -283 -50 l0 -121 ZM418 750 q86 -115 136 -206 l-78 -56 q-17 34 -33 62 q-156 -24 -375 -36 l-26 79 q25 9 43 24 q93 103 140 204 l91 -27 q-62 -121 -141 -197 q91 5 227 22 q-22 35 -57 85 l73 46 Z" /><glyph glyph-name="" unicode="&#x89e3;" d="M599 270 q-22 -43 -58 -83 l-55 67 q64 70 85 183 l78 -14 q-9 -44 -16 -68 l73 0 l0 86 l93 0 l0 -86 l137 0 l0 -85 l-137 0 l0 -101 l158 0 l0 -87 l-158 0 l0 -188 l-93 0 l0 188 l-213 0 l0 87 l213 0 l0 101 l-107 0 ZM499 683 l0 84 l431 0 q-1 -213 -30 -255 q-28 -42 -98 -42 q-19 0 -85 4 l-22 78 q53 -3 87 -6 q37 2 46 23 q8 18 11 114 l-127 0 q-14 -60 -43 -115 q-40 -64 -117 -117 l-56 71 q64 37 95 85 q19 31 32 76 l-124 0 ZM174 323 l0 -113 l70 0 l0 113 l-70 0 ZM169 131 q-13 -144 -67 -242 l-64 59 q53 106 55 271 l0 298 l-51 62 q84 88 144 245 l86 -20 l-21 -53 l170 0 l0 -65 q-30 -58 -57 -98 l107 0 l0 -605 q0 -78 -83 -78 l-49 0 l-20 71 l0 -62 l-75 0 l0 217 l-75 0 ZM268 588 q21 31 52 86 l-106 0 q-25 -48 -51 -86 l105 0 ZM319 -17 q30 -4 42 -4 q30 0 30 32 l0 120 l-72 0 l0 -148 ZM391 210 l0 113 l-72 0 l0 -113 l72 0 ZM391 401 l0 106 l-72 0 l0 -106 l72 0 ZM244 507 l-70 0 l0 -106 l70 0 l0 106 Z" /><glyph glyph-name="" unicode="&#x8ba2;" d="M381 770 l585 0 l0 -92 l-202 0 l0 -673 q0 -102 -102 -102 l-133 0 l-21 93 q74 -7 121 -7 q39 0 39 40 l0 649 l-287 0 l0 92 ZM174 813 q99 -78 164 -148 l-65 -66 q-62 71 -166 149 l67 65 ZM41 522 l231 0 l0 -430 q66 54 109 94 l25 -100 q-99 -89 -215 -159 l-36 85 q26 21 26 51 l0 368 l-140 0 l0 91 Z" /><glyph glyph-name="" unicode="&#x8ba4;" d="M712 813 q0 -130 -9 -241 q78 -369 270 -588 l-68 -80 q-148 191 -229 462 l-8 -39 q-54 -257 -255 -425 l-64 78 q170 146 224 363 q41 179 43 470 l96 0 ZM173 812 q99 -75 165 -148 l-65 -66 q-62 73 -166 149 l66 65 ZM41 522 l231 0 l0 -418 q42 35 100 90 l24 -98 q-95 -88 -205 -160 l-36 85 q26 21 26 52 l0 358 l-140 0 l0 91 Z" /><glyph glyph-name="" unicode="&#x8bb0;" d="M973 177 q-15 -154 -45 -202 q-29 -46 -120 -46 l-261 0 q-97 0 -97 100 l0 449 l353 0 l0 209 l-395 0 l0 92 l486 0 l0 -392 l-351 0 l0 -321 q0 -44 45 -47 l203 0 q54 0 68 40 q13 43 19 150 l95 -32 ZM173 812 q99 -75 165 -148 l-65 -66 q-62 73 -166 149 l66 65 ZM41 522 l231 0 l0 -431 q66 54 109 94 l25 -100 q-103 -91 -214 -158 l-36 85 q25 22 25 51 l0 368 l-140 0 l0 91 Z" /><glyph glyph-name="" unicode="&#x8bc6;" d="M426 768 l481 0 l0 -489 l-481 0 l0 489 ZM811 371 l0 306 l-290 0 l0 -306 l290 0 ZM174 812 q94 -72 163 -147 l-65 -66 q-61 72 -165 148 l67 65 ZM40 522 l229 0 l0 -421 q41 38 87 84 l26 -100 q-89 -88 -193 -158 l-36 86 q25 22 25 50 l0 368 l-138 0 l0 91 ZM615 192 q-70 -170 -172 -301 l-84 61 q100 117 172 281 l84 -41 ZM794 237 q114 -159 178 -284 l-82 -57 q-61 128 -173 292 l77 49 Z" /><glyph glyph-name="" unicode="&#x8bf7;" d="M603 820 l91 0 l0 -58 l240 0 l0 -77 l-240 0 l0 -49 l205 0 l0 -75 l-205 0 l0 -50 l265 0 l0 -79 l-618 0 l0 79 l262 0 l0 50 l-192 0 l0 75 l192 0 l0 49 l-234 0 l0 77 l234 0 l0 58 ZM502 180 l0 -56 l297 0 l0 56 l-297 0 ZM799 252 l0 57 l-297 0 l0 -57 l297 0 ZM502 52 l0 -155 l-90 0 l0 489 l478 0 l0 -390 q0 -93 -95 -93 l-83 0 l-22 84 l78 -5 q31 0 31 33 l0 37 l-297 0 ZM174 812 q99 -76 163 -147 l-65 -66 q-61 72 -165 148 l67 65 ZM38 522 l227 0 l0 -418 q25 24 80 81 l25 -100 q-86 -89 -185 -159 l-36 86 q25 22 25 53 l0 366 l-136 0 l0 91 Z" /><glyph glyph-name="" unicode="&#x8bfe;" d="M389 785 l511 0 l0 -399 l-212 0 l0 -76 l256 0 l0 -88 l-179 0 q63 -118 206 -213 l-61 -76 q-154 131 -218 289 l-4 0 l0 -323 l-89 0 l0 323 l-3 0 q-72 -176 -231 -290 l-49 81 q139 85 207 209 l-176 0 l0 88 l252 0 l0 76 l-210 0 l0 399 ZM813 466 l0 79 l-125 0 l0 -79 l125 0 ZM599 466 l0 79 l-123 0 l0 -79 l123 0 ZM476 622 l123 0 l0 81 l-123 0 l0 -81 ZM688 703 l0 -81 l125 0 l0 81 l-125 0 ZM174 812 q96 -73 162 -147 l-65 -66 q-60 71 -164 148 l67 65 ZM38 522 l224 0 l0 -409 q40 37 73 71 l25 -97 q-80 -80 -179 -149 l-36 84 q25 22 25 50 l0 359 l-132 0 l0 91 Z" /><glyph glyph-name="" unicode="&#x8d1f;" d="M849 568 l0 -464 l-93 0 l0 375 l-466 0 l0 -385 l-93 0 l0 418 l-71 -50 l-61 72 q173 103 295 285 l93 -20 q-9 -15 -37 -57 l319 0 l0 -70 q-50 -64 -91 -104 l205 0 ZM534 568 q42 39 84 90 l-267 0 q-42 -48 -87 -90 l270 0 ZM583 139 q198 -68 359 -165 l-53 -81 q-172 113 -353 176 l47 70 ZM474 436 l92 0 l0 -141 q-9 -164 -107 -260 q-95 -89 -313 -139 l-51 81 q219 49 295 119 q77 77 84 199 l0 141 Z" /><glyph glyph-name="" unicode="&#x8d23;" d="M94 761 l359 0 l0 57 l94 0 l0 -57 l355 0 l0 -78 l-355 0 l0 -46 l304 0 l0 -77 l-304 0 l0 -47 l387 0 l0 -81 l-868 0 l0 81 l387 0 l0 47 l-307 0 l0 77 l307 0 l0 46 l-359 0 l0 78 ZM818 388 l0 -307 l-91 0 l0 224 l-457 0 l0 -232 l-91 0 l0 315 l639 0 ZM562 120 q194 -61 355 -147 l-54 -82 q-168 95 -353 151 l52 78 ZM547 254 q-19 -147 -118 -235 q-87 -79 -308 -124 l-38 90 q185 33 271 97 q82 65 101 181 l92 -9 Z" /><glyph glyph-name="" unicode="&#x8d26;" d="M434 786 l0 -637 l-83 0 l0 550 l-193 0 l0 -550 l-86 0 l0 637 l362 0 ZM213 636 l80 0 l0 -327 q-3 -169 -51 -269 q-47 -95 -150 -146 l-51 80 q98 50 134 125 q34 82 38 210 l0 327 ZM329 124 q76 -76 131 -154 l-68 -68 q-43 75 -123 163 l60 59 ZM623 322 l0 -305 q63 25 121 63 l17 -85 q-93 -58 -217 -97 l-39 84 q25 14 25 38 l0 302 l-64 0 l0 92 l64 0 l0 405 l93 0 l0 -405 l323 0 l0 -92 l-169 0 q68 -222 189 -342 l-64 -74 q-136 143 -206 416 l-73 0 ZM933 718 q-104 -170 -243 -250 l-51 73 q127 77 221 236 l73 -59 Z" /><glyph glyph-name="" unicode="&#x8d2d;" d="M427 786 l0 -263 q88 125 121 300 l92 -12 q-12 -65 -32 -127 l321 0 q0 -531 -15 -654 q-15 -124 -136 -124 l-145 4 l-22 85 q97 -5 153 -5 q52 0 61 75 q8 69 11 527 l-264 0 q-43 -90 -99 -161 l-46 59 l0 -341 l-84 0 l0 550 l-186 0 l0 -550 l-85 0 l0 637 l355 0 ZM727 378 q49 -127 88 -257 l-77 -39 l-19 69 q-104 -22 -249 -38 l-15 82 q48 24 134 323 l86 -29 q-54 -161 -115 -286 q65 7 136 23 q-27 81 -41 117 l72 35 ZM210 636 l78 0 l0 -328 q-3 -168 -50 -268 q-46 -94 -147 -145 l-50 79 q97 50 131 124 q34 82 38 210 l0 328 ZM331 124 q86 -83 139 -154 l-69 -67 q-43 72 -130 162 l60 59 Z" /><glyph glyph-name="" unicode="&#x8d39;" d="M227 579 l-14 -49 l119 0 q6 24 9 49 l-114 0 ZM433 579 q-1 -25 -6 -49 l136 0 l0 49 l-130 0 ZM655 579 l0 -49 l264 0 q0 -116 -24 -148 q-24 -32 -111 -34 q-17 0 -47 2 l-17 65 q27 -3 53 -3 q39 0 48 11 q8 13 8 35 l-174 0 l0 -104 l-92 0 l0 104 l-161 0 q-21 -39 -46 -64 q-32 -31 -90 -59 l571 0 l0 -278 l-94 0 l0 194 l-460 0 l0 -194 l-93 0 l0 250 q-37 -11 -63 -17 l-48 74 q151 33 205 84 l9 10 l-182 0 l39 194 l192 0 l0 49 l-222 0 l0 77 l222 0 l0 44 l92 0 l0 -44 l129 0 l0 44 l92 0 l0 -44 l212 0 l0 -199 l-212 0 ZM434 701 l0 -49 l129 0 l0 49 l-129 0 ZM655 701 l0 -49 l124 0 l0 49 l-124 0 ZM574 77 q198 -46 353 -109 l-52 -79 q-165 73 -349 116 l48 72 ZM557 217 q-19 -172 -90 -229 q-76 -73 -354 -94 l-38 85 q237 11 311 64 q65 53 77 183 l94 -9 Z" /><glyph glyph-name="" unicode="&#x8f93;" d="M218 539 l89 0 l0 -138 l84 0 l0 -85 l-84 0 l0 -111 q53 12 85 21 l0 -89 l-85 -23 l0 -217 l-89 0 l0 197 q-101 -19 -166 -28 l-12 93 q94 12 178 27 l0 130 l-146 0 l-20 80 q38 84 68 202 l-72 0 l0 90 l93 0 q16 76 26 134 l86 -20 l-23 -114 l166 0 l0 -90 l-188 0 q-30 -111 -63 -197 l73 0 l0 138 ZM522 573 q-49 -45 -105 -88 l-52 79 q150 107 271 255 l70 0 q129 -158 263 -250 l-50 -75 q-49 36 -106 86 l0 -58 l-291 0 l0 51 ZM792 600 q-64 63 -121 133 q-60 -72 -121 -133 l242 0 ZM549 -96 l-21 77 l39 -3 q29 0 29 32 l0 72 l-90 0 l0 -185 l-82 0 l0 561 l253 0 l0 -465 q0 -89 -84 -89 l-44 0 ZM506 154 l90 0 l0 77 l-90 0 l0 -77 ZM506 303 l90 0 l0 79 l-90 0 l0 -79 ZM719 428 l72 0 l0 -363 l-72 0 l0 363 ZM752 -98 l-20 83 q41 -6 76 -6 q28 0 28 39 l0 450 l83 0 l0 -470 q0 -96 -81 -96 l-86 0 Z" /><glyph glyph-name="" unicode="&#x8fce;" d="M131 811 q101 -80 170 -158 l-66 -65 q-62 77 -167 162 l63 61 ZM731 -85 q-52 0 -186 2 q-103 2 -166 18 q-64 18 -110 70 q-20 26 -40 26 q-33 0 -113 -143 l-67 63 q76 125 139 158 l0 285 l-138 0 l0 86 l225 0 l0 -377 l17 -17 q39 -40 76 -61 q49 -22 140 -25 q118 -2 211 -2 q43 0 139 2 q98 4 109 5 l-21 -90 l-215 0 ZM336 183 q26 12 26 43 l0 503 q123 39 195 90 l50 -72 q-63 -44 -159 -79 l0 -452 q76 22 143 45 l15 -83 q-101 -33 -247 -72 l-23 77 ZM767 141 l-25 86 l70 -3 q30 0 30 34 l0 424 l-121 0 l0 -652 l-85 0 l0 734 l291 0 l0 -524 q0 -99 -87 -99 l-73 0 Z" /><glyph glyph-name="" unicode="&#x8fd4;" d="M137 810 q96 -76 168 -157 l-68 -67 q-59 76 -166 162 l66 62 ZM709 -86 q-50 0 -176 2 q-93 1 -157 17 q-57 17 -104 70 q-19 25 -37 25 q-30 0 -107 -135 l-70 65 q75 122 135 152 l0 283 l-135 0 l0 88 l224 0 l0 -379 l14 -14 q33 -40 71 -60 q46 -22 130 -25 q112 -2 199 -2 q47 0 149 2 q66 1 116 5 l-23 -94 l-229 0 ZM916 733 q-190 -47 -427 -55 l1 -92 l413 0 l0 -66 q-39 -135 -111 -240 q82 -73 154 -156 l-64 -76 q-66 83 -147 159 q-91 -102 -219 -174 l-58 77 q122 65 208 159 q-75 65 -159 123 l56 67 q86 -59 160 -119 q54 76 87 167 l-321 0 q-8 -289 -96 -437 l-86 43 q89 148 94 417 l0 231 q274 6 468 53 l47 -81 Z" /><glyph glyph-name="" unicode="&#x9009;" d="M610 822 l93 0 l0 -120 l187 0 l0 -90 l-187 0 l0 -120 l224 0 l0 -91 l-157 0 l0 -241 q0 -21 27 -21 l22 0 q20 0 33 9 q15 10 21 104 l82 -27 q-15 -127 -36 -148 q-25 -22 -82 -22 l-70 0 q-43 0 -64 24 q-22 23 -22 60 l0 262 l-80 0 q-6 -94 -30 -165 q-39 -113 -179 -187 l-61 74 q116 57 154 143 q21 54 27 135 l-144 0 l0 91 l242 0 l0 120 l-143 0 q-30 -56 -55 -96 l-80 51 q77 112 110 239 l90 -18 q-11 -41 -27 -86 l105 0 l0 120 ZM135 810 q96 -77 166 -158 l-67 -66 q-56 74 -164 162 l65 62 ZM710 -86 q-51 0 -179 2 q-95 1 -160 17 q-59 18 -105 70 q-21 25 -38 25 q-31 0 -108 -135 l-70 65 q75 122 135 152 l0 283 l-134 0 l0 88 l223 0 l0 -378 q8 -6 15 -15 q35 -40 72 -60 q47 -22 133 -25 q114 -2 202 -2 q49 0 149 2 q66 1 116 5 l-23 -94 l-228 0 Z" /><glyph glyph-name="" unicode="&#x9053;" d="M332 717 l146 0 q-23 42 -48 73 l89 33 q32 -45 59 -106 l110 0 q32 45 62 107 l92 -32 q-26 -44 -49 -75 l150 0 l0 -89 l-273 0 q-11 -38 -20 -61 l229 0 l0 -497 l-488 0 l0 497 l158 0 q10 25 19 61 l-236 0 l0 89 ZM789 154 l0 63 l-309 0 l0 -63 l309 0 ZM480 292 l309 0 l0 56 l-309 0 l0 -56 ZM480 424 l309 0 l0 59 l-309 0 l0 -59 ZM135 810 q101 -78 171 -158 l-67 -66 q-61 76 -169 162 l65 62 ZM709 -86 q-49 0 -177 2 q-94 1 -158 17 q-60 18 -104 70 q-21 25 -38 25 q-31 0 -112 -135 l-70 65 q78 122 140 153 l0 282 l-139 0 l0 88 l228 0 l0 -379 l14 -14 q34 -40 71 -60 q47 -22 132 -25 q112 -2 200 -2 q47 0 149 2 q66 1 116 5 l-23 -94 l-229 0 Z" /><glyph glyph-name="" unicode="&#x90e8;" d="M592 775 l336 0 l0 -68 q-45 -154 -96 -285 q106 -151 107 -245 q0 -86 -37 -121 q-41 -35 -161 -35 l-28 95 q51 -6 86 -6 q34 3 43 16 q8 11 10 51 q-2 94 -114 245 q48 111 93 269 l-148 0 l0 -795 l-91 0 l0 879 ZM67 731 l189 0 q-12 44 -27 81 l97 16 q12 -39 25 -97 l190 0 l0 -90 l-474 0 l0 90 ZM48 458 l123 0 q-22 68 -54 126 l86 31 q30 -67 57 -157 l91 0 q37 79 63 163 l87 -30 q-29 -80 -56 -133 l102 0 l0 -91 l-499 0 l0 91 ZM506 295 l0 -380 l-91 0 l0 48 l-225 0 l0 -50 l-92 0 l0 382 l408 0 ZM190 51 l225 0 l0 158 l-225 0 l0 -158 Z" /><glyph glyph-name="" unicode="&#x91cd;" d="M145 529 l306 0 l0 49 l-382 0 l0 80 l382 0 l0 55 q-109 -6 -303 -13 l-16 76 q389 12 691 42 l29 -77 q-168 -14 -306 -23 l0 -60 l384 0 l0 -80 l-384 0 l0 -49 l307 0 l0 -344 l-307 0 l0 -53 l349 0 l0 -75 l-349 0 l0 -57 l399 0 l0 -81 l-890 0 l0 81 l396 0 l0 57 l-346 0 l0 75 l346 0 l0 53 l-306 0 l0 344 ZM761 260 l0 62 l-215 0 l0 -62 l215 0 ZM451 260 l0 62 l-215 0 l0 -62 l215 0 ZM236 394 l215 0 l0 60 l-215 0 l0 -60 ZM546 454 l0 -60 l215 0 l0 60 l-215 0 Z" /><glyph glyph-name="" unicode="&#x91cf;" d="M145 400 l712 0 l0 -260 l-311 0 l0 -44 l331 0 l0 -61 l-331 0 l0 -47 l404 0 l0 -72 l-900 0 l0 72 l402 0 l0 47 l-327 0 l0 61 l327 0 l0 44 l-307 0 l0 260 ZM767 196 l0 48 l-221 0 l0 -48 l221 0 ZM452 196 l0 48 l-217 0 l0 -48 l217 0 ZM235 296 l217 0 l0 48 l-217 0 l0 -48 ZM546 344 l0 -48 l221 0 l0 48 l-221 0 ZM167 805 l669 0 l0 -254 l-669 0 l0 254 ZM745 605 l0 46 l-487 0 l0 -46 l487 0 ZM258 705 l487 0 l0 45 l-487 0 l0 -45 ZM50 509 l900 0 l0 -68 l-900 0 l0 68 Z" /><glyph glyph-name="" unicode="&#x2fa6;&#x91d1;" d="M235 519 q-66 -39 -138 -72 l-55 79 q259 114 421 291 l76 0 q139 -174 418 -289 l-54 -79 q-76 32 -136 66 l0 -52 l-219 0 l0 -121 l348 0 l0 -88 l-348 0 l0 -245 l94 0 q44 89 82 200 l86 -31 q-32 -93 -72 -169 l193 0 l0 -90 l-861 0 l0 90 l196 0 q-28 83 -71 162 l85 31 q42 -82 78 -193 l96 0 l0 245 l-349 0 l0 88 l349 0 l0 121 l-219 0 l0 56 ZM712 548 q-122 77 -211 180 q-99 -102 -219 -180 l430 0 Z" /><glyph glyph-name="" unicode="&#x2ed3;&#x957f;" d="M58 440 l195 0 l0 375 l96 0 l0 -375 l596 0 l0 -92 l-318 0 q62 -219 331 -345 l-56 -90 q-304 160 -367 435 l-186 0 l0 -331 q104 27 207 63 l24 -89 q-149 -51 -323 -90 l-29 88 q25 14 25 43 l0 316 l-195 0 l0 92 ZM845 745 q-119 -134 -359 -242 l-57 76 q236 102 352 231 l64 -65 Z" /><glyph glyph-name="" unicode="&#x95f4;" d="M297 555 l398 0 l0 -484 l-398 0 l0 484 ZM607 155 l0 117 l-221 0 l0 -117 l221 0 ZM386 354 l221 0 l0 117 l-221 0 l0 -117 ZM715 -95 l-24 89 l86 -2 q41 0 41 55 l0 642 l-377 0 l0 87 l469 0 l0 -755 q0 -116 -113 -116 l-82 0 ZM88 654 l92 0 l0 -758 l-92 0 l0 758 ZM255 830 q69 -81 122 -178 l-86 -45 q-53 100 -122 185 l86 38 Z" /><glyph glyph-name="" unicode="&#x9898;" d="M720 1 q162 0 241 6 l-16 -94 l-203 0 q-358 0 -449 38 q-71 29 -127 104 q-25 -86 -69 -160 l-68 61 q76 133 83 296 l84 -11 q-3 -55 -10 -95 q29 -42 68 -74 l0 214 l-191 0 l0 86 l428 0 l0 -86 l-154 0 l0 -86 l129 0 l0 -84 l-129 0 l0 -89 l4 -1 q84 -25 379 -25 ZM102 787 l355 0 l0 -363 l-355 0 l0 363 ZM365 502 l0 67 l-171 0 l0 -67 l171 0 ZM194 641 l171 0 l0 68 l-171 0 l0 -68 ZM499 787 l438 0 l0 -86 l-173 0 q-3 -25 -11 -63 l161 0 l0 -411 l-88 0 l0 330 l-216 0 l0 -330 l-84 0 l0 411 l143 0 q6 32 9 63 l-179 0 l0 86 ZM799 231 q87 -65 151 -137 l-66 -66 q-57 70 -149 143 l64 60 ZM674 519 l88 0 l0 -144 q-6 -141 -57 -225 q-53 -79 -168 -121 l-51 81 q108 39 147 99 q38 64 41 166 l0 144 Z" /><glyph glyph-name="" unicode="&#x989d;" d="M158 404 q-38 -36 -67 -58 l-50 66 q117 86 160 214 l85 -12 q-8 -23 -20 -53 l147 0 l0 89 l-272 0 l0 -98 l-82 0 l0 178 l177 0 q-15 37 -40 81 l96 16 q17 -38 36 -97 l167 0 l0 -177 l-49 0 l0 -55 q-36 -73 -83 -127 q85 -50 161 -105 l-58 -58 q-64 52 -156 109 q-72 -62 -159 -98 l295 0 l0 -316 l-84 0 l0 50 l-156 0 l0 -50 l-84 0 l0 305 q-18 -6 -52 -16 l-35 71 q117 27 204 96 q-40 24 -81 45 ZM293 411 q30 32 59 78 l-125 0 l-22 -31 q59 -31 88 -47 ZM206 32 l156 0 l0 109 l-156 0 l0 -109 ZM518 785 l445 0 l0 -86 l-178 0 q-4 -35 -16 -95 l164 0 l0 -480 l-84 0 l0 401 l-228 0 l0 -402 l-84 0 l0 481 l144 0 q6 32 14 95 l-177 0 l0 86 ZM807 116 q93 -76 162 -157 l-61 -61 q-59 77 -158 162 l57 56 ZM691 473 l83 0 l0 -178 q-5 -163 -61 -260 q-56 -92 -179 -140 l-48 74 q117 48 159 122 q41 77 46 204 l0 178 Z" /><glyph glyph-name="" unicode="&#x2fbc;&#x9ad8;" d="M528 826 q14 -40 27 -82 l389 0 l0 -88 l-889 0 l0 88 l397 0 q-13 33 -30 64 l106 18 ZM699 -100 l-22 85 l77 -4 q56 0 56 40 l0 253 l-620 0 l0 -377 l-90 0 l0 459 l800 0 l0 -355 q0 -101 -118 -101 l-83 0 ZM212 609 l577 0 l0 -208 l-577 0 l0 208 ZM698 473 l0 64 l-395 0 l0 -64 l395 0 ZM297 226 l407 0 l0 -210 l-407 0 l0 210 ZM620 86 l0 70 l-238 0 l0 -70 l238 0 Z" /><glyph glyph-name="" unicode="&#x9f84;" d="M248 818 l88 0 l0 -100 l131 0 l0 -83 l-131 0 l0 -85 l142 0 l0 -39 q127 122 200 312 l84 0 q61 -182 212 -321 l-51 -78 q-137 123 -203 305 q-81 -199 -205 -308 l-37 56 l0 -16 l-439 0 l0 89 l60 0 l0 198 l85 0 l0 -198 l64 0 l0 268 ZM380 411 l84 0 l0 -511 l-84 0 l0 63 l-310 -35 l0 482 l84 0 l0 -390 l226 26 l0 90 l-60 -41 q-18 50 -45 102 q-22 -70 -59 -135 l-61 53 q74 138 82 308 l76 -9 q-3 -60 -14 -122 q51 -75 81 -135 l0 254 ZM522 390 l406 0 l0 -80 q-68 -130 -161 -240 q62 -57 111 -111 l-70 -69 q-98 124 -274 264 l62 59 q56 -42 105 -84 q62 76 122 172 l-301 0 l0 89 ZM697 575 q69 -69 109 -123 l-68 -47 q-39 55 -106 122 l65 48 Z" /></font>
</defs>
</svg>
